<svg width="406" height="311" viewBox="0 0 406 311" fill="none" xmlns="http://www.w3.org/2000/svg">
<path d="M126.489 56.3493C48.6566 67.8647 10.1433 133.334 5.19477 179.529C-0.850929 235.92 25.3695 265.725 74.295 261.857C127.34 257.653 188.358 251.929 254.187 261.857C320.042 271.784 369.302 280.885 393.486 220.447C417.669 160.009 385.873 44.8789 296.777 24.6434C231.147 9.72948 207.546 44.3647 126.489 56.3493Z" fill="#ECF0F7"/>
<path d="M307.346 279.856C307.346 279.856 307.928 238.715 294.292 226.506C280.655 214.298 244.001 159.718 273.648 146.28C303.293 132.842 312.205 182.145 331.216 198.848C350.226 215.551 334.126 278.336 334.126 278.336L307.346 279.856Z" fill="#DAE1F0"/>
<path d="M325.976 288.063L324.632 287.928C324.676 287.437 329.581 238.871 320.736 217.071C316.638 206.986 308.488 197.305 299.822 187.042C289.387 174.677 278.617 161.91 272.996 146.481L274.251 146.034C279.781 161.239 290.484 173.917 300.83 186.193C309.563 196.522 317.781 206.293 321.967 216.578C330.969 238.67 326.042 287.593 325.976 288.063Z" fill="#B5C4E2"/>
<path d="M296.105 183.352C294.896 180.043 294.962 172.955 295.031 165.442C295.097 158.22 295.164 150.036 293.753 148.002L294.85 147.241C296.485 149.634 296.418 157.326 296.352 165.465C296.284 172.53 296.24 179.819 297.358 182.905L296.105 183.352Z" fill="#B5C4E2"/>
<path d="M302.577 190.306C301.523 189.055 294.962 186.326 288.045 183.441C273.961 177.606 263.1 172.821 262.003 169.176L263.279 168.796C264.287 172.15 278.327 177.964 288.559 182.213C297.113 185.767 302.419 188.003 303.606 189.457L302.577 190.306Z" fill="#B5C4E2"/>
<path d="M316.839 209.134C316.011 207.523 315.451 201.531 314.645 191.826C313.952 183.441 313.168 173.961 312.116 172.083L313.28 171.412C314.489 173.537 315.205 182.368 315.989 191.716C316.615 199.25 317.243 207.032 318.026 208.506L316.839 209.134Z" fill="#B5C4E2"/>
<path d="M323.02 224.271C320.757 220.67 309.629 217.854 299.799 215.371C289.723 212.822 280.206 210.43 277.902 207.032L278.999 206.272C281.036 209.245 290.754 211.705 300.135 214.075C311.174 216.87 321.61 219.508 324.161 223.555L323.02 224.271Z" fill="#B5C4E2"/>
<path d="M325.416 258.593C324.452 250.722 314.601 246.228 307.412 242.942C304.883 241.801 302.71 240.794 301.457 239.856L302.262 238.781C303.405 239.632 305.533 240.593 307.972 241.712C315.026 244.932 325.684 249.805 326.737 258.413L325.416 258.593Z" fill="#B5C4E2"/>
<path d="M327.073 245.423L325.729 245.334C325.93 242.426 328.617 236.189 331.461 229.57C334.485 222.505 337.932 214.499 337.685 211.683L339.029 211.571C339.322 214.7 336.096 222.192 332.715 230.084C330.029 236.323 327.275 242.739 327.073 245.423Z" fill="#B5C4E2"/>
<path d="M319.841 277.957C335.783 255.485 317.445 180.983 353.763 150.774C390.059 120.566 415.653 137.985 392.411 180.826C369.17 223.667 361.265 274.021 348.658 278.672C336.053 283.323 319.841 277.957 319.841 277.957Z" fill="#DAE1F0"/>
<path d="M332.738 288.286L331.417 288.04C331.483 287.682 338.245 251.952 352.711 204.884C362.204 173.984 373.893 159.427 381.619 149.79C385.917 144.424 389.03 140.533 390.217 136.062L391.515 136.397C390.262 141.137 387.083 145.117 382.671 150.618C375.013 160.165 363.437 174.61 354.009 205.265C339.567 252.287 332.805 287.951 332.738 288.286Z" fill="#B5C4E2"/>
<path d="M360.682 186.75L359.63 185.901C363.884 180.602 372.729 176.487 381.306 172.486C390.038 168.416 398.3 164.57 399.756 160.255L401.032 160.68C399.374 165.532 390.889 169.489 381.887 173.693C373.445 177.651 364.735 181.72 360.682 186.75Z" fill="#B5C4E2"/>
<path d="M354.009 205.288L352.734 204.907C353.696 201.755 353.561 192.341 353.428 182.391C353.182 163.81 353.248 150.439 356.382 147.823L357.257 148.851C354.368 151.266 354.592 168.528 354.771 182.368C354.905 192.855 355.04 201.911 354.009 205.288Z" fill="#B5C4E2"/>
<path d="M345.075 236.301L343.777 235.942C345.322 230.374 353.897 224.449 362.988 218.212C370.982 212.71 379.267 207.009 381.528 202.022L382.76 202.582C380.364 207.904 371.922 213.716 363.772 219.328C355.264 225.143 346.486 231.202 345.075 236.301Z" fill="#B5C4E2"/>
<path d="M342.298 246.831L341 246.495C342.41 240.883 337.955 223.532 334.708 210.877C332.313 201.575 330.969 196.21 331.259 194.599L332.58 194.822C332.335 196.232 334.126 203.186 336.007 210.542C339.477 224.07 343.777 240.883 342.298 246.831Z" fill="#B5C4E2"/>
<path d="M336.254 271.987L334.932 271.695C335.625 268.521 341.582 265.346 348.479 261.679C354.905 258.258 362.182 254.389 363.391 250.923L364.669 251.37C363.279 255.307 356.069 259.152 349.106 262.863C343.082 266.083 336.812 269.415 336.254 271.987Z" fill="#B5C4E2"/>
<path d="M116.548 204.348C116.548 204.348 116.503 182.033 116.011 163.519C115.518 145.005 133.073 124.636 137.193 114.082C141.313 103.506 136.991 87.3399 151.859 80.1848C151.859 80.1848 143.127 95.747 151.031 103.819C158.935 111.891 148.814 139.661 147.247 151.579C145.679 163.452 136.678 195.002 116.548 204.348Z" fill="#DAE1F0"/>
<path d="M95.6565 241.084C95.6565 241.084 84.9085 191.223 68.0254 170.048C51.1421 148.874 52.2842 152.094 27.631 146.906C3.00044 141.719 4.34393 159.763 4.34393 159.763C4.34393 159.763 18.1371 151.937 26.0861 162.267C34.0574 172.597 36.3413 186.214 51.9483 207.614C67.5552 229.011 95.6565 241.084 95.6565 241.084Z" fill="#DAE1F0"/>
<path d="M43.126 89.7996C48.0745 107.866 85.6027 117.391 94.2234 136.598C102.844 155.805 99.127 202.269 99.127 202.269C99.127 202.269 75.6832 182.078 74.0935 164.235C72.5036 146.392 60.3003 139.304 50.851 121.148C41.4241 102.969 43.126 89.7996 43.126 89.7996Z" fill="#DAE1F0"/>
<path d="M109.315 286.566L107.972 286.655C107.949 286.139 104.479 235.16 98.4777 202.403L98.0075 199.831C92.1634 167.88 88.648 148.583 70.9138 131.478C52.6872 113.858 42.6111 90.3137 42.5215 90.0677L43.753 89.5535C43.8426 89.7771 53.8291 113.098 71.8543 130.516C89.8795 147.912 93.4397 167.365 99.3288 199.585L99.799 202.157C105.822 234.981 109.293 286.05 109.315 286.566Z" fill="#DAE1F0"/>
<path d="M106.651 269.593C105.083 253.248 90.6409 234.131 75.3699 213.896C66.279 201.844 56.8745 189.411 48.9927 176.243L50.1347 175.549C57.9718 188.651 67.3538 201.062 76.4223 213.068C91.8278 233.46 106.36 252.735 107.972 269.459L106.651 269.593Z" fill="#B5C4E2"/>
<path d="M103.829 240.525C102.083 226.597 108.397 216.334 114.488 206.427C118.362 200.121 122.37 193.615 124.25 186.214C129.042 167.365 132.67 131.724 132.692 131.366L134.036 131.5C133.991 131.858 130.363 167.589 125.549 186.527C123.623 194.13 119.548 200.726 115.63 207.121C109.382 217.295 103.471 226.887 105.15 240.347L103.829 240.525Z" fill="#B5C4E2"/>
<path d="M172.728 216.177C172.728 216.177 167.78 262.685 163.525 268.051C159.293 273.418 144.963 276.1 144.963 283.256C144.963 290.411 264.086 289.517 264.982 283.256C265.878 276.994 253.652 272.523 249.016 268.051C244.381 263.58 239.008 216.177 239.008 216.177H172.728Z" fill="#273B63"/>
<path d="M163.57 277.665L163.503 276.323C164.018 276.301 214.578 273.662 249.039 276.323L248.927 277.665C214.555 275.027 164.085 277.643 163.57 277.665Z" fill="#C8F2E9"/>
<path d="M74.855 49.9994C66.2567 53.4428 64.9132 219.397 74.7654 228.34C84.6177 237.284 329.133 235.495 332.715 228.34C336.297 221.186 343.955 57.5347 329.94 48.5906C315.922 39.6468 95.7687 41.5921 74.855 49.9994Z" fill="#273B63"/>
<path d="M82.916 59.5469C76.1537 64.3766 78.4376 194.354 82.916 199.72C87.3943 205.085 315.787 205.085 322.058 199.72C328.326 194.354 326.536 65.1592 322.058 59.5469C317.579 53.9345 90.0812 54.4266 82.916 59.5469Z" fill="#DAE1F0"/>
<path d="M231.595 203.745C231.595 203.745 231.595 186.305 234.731 180.043C237.865 173.783 249.956 153.211 254.882 131.746C259.809 110.281 253.986 56.6177 247.27 56.6177C240.552 56.6177 241 96.418 241 96.418C241 96.418 241.448 46.3323 233.387 46.3323C225.327 46.3323 224.879 93.2875 224.879 93.2875C224.879 93.2875 225.327 37.3884 215.922 37.3884C206.518 37.3884 206.966 92.8404 206.966 92.8404C206.966 92.8404 206.584 47.2267 197.806 47.2267C189.03 47.2267 190.843 116.989 188.605 137.56C186.365 158.131 197.806 203.745 197.806 203.745H231.595Z" fill="white"/>
<path d="M251.702 142.926C252.934 139.282 254.009 135.525 254.882 131.746C255.979 126.961 256.539 120.589 256.674 113.568C235.693 116.989 202.33 130.025 188.783 135.525C188.716 136.241 188.648 136.911 188.582 137.538C188.492 138.365 188.424 139.259 188.38 140.154C200.382 144.402 229.133 152.496 251.702 142.926Z" fill="#ECF0F7"/>
<path d="M110.614 8.76811C107.009 14.5369 106.203 126.827 110.614 134.362C115.025 141.898 285.448 136.934 292.994 127.163C300.54 117.391 296.128 23.1902 292.994 11.25C289.858 -0.645322 116.906 -1.27139 110.614 8.76811Z" fill="#B5C4E2"/>
<path d="M202.398 104.266C185.245 104.266 113.167 13.0611 110.099 9.17057L111.152 8.34326C111.891 9.28236 185.873 102.925 202.398 102.925C218.922 102.925 291.762 11.7866 292.478 10.8699L293.531 11.6972C290.507 15.476 219.55 104.266 202.398 104.266Z" fill="#3D5C9B"/>
<path d="M111.107 134.832L110.122 133.915C110.458 133.557 144.313 96.8428 170.87 78.6643L171.631 79.7823C145.209 97.8714 111.443 134.474 111.107 134.832Z" fill="#3D5C9B"/>
<path d="M292.5 127.654C263.324 96.3732 237.463 76.0929 237.216 75.8916L238.044 74.8408C238.313 75.0419 264.243 95.3894 293.486 126.76L292.5 127.654Z" fill="#3D5C9B"/>
<path d="M187.887 89.0393C178.93 89.0393 185.468 108.939 182.782 118.33C180.094 127.722 172.034 136.218 174.273 151.87C176.512 167.522 189.051 177.806 191.739 184.963C194.425 192.118 191.739 203.745 191.739 203.745H221.742C221.742 203.745 219.952 192.565 219.056 169.311C218.16 146.056 200.314 141.585 197.806 138.007C195.321 134.429 202.487 125.038 202.039 112.964C201.591 100.89 192.566 89.0393 187.887 89.0393Z" fill="white"/>
<path d="M204.591 226.35C204.367 226.35 204.143 226.35 203.921 226.328C199.173 225.948 197.628 222.347 197.74 219.396C197.874 215.886 200.247 212.263 203.987 212.263C207.526 212.263 210.166 213.493 211.465 215.706C212.607 217.696 212.518 220.314 211.242 222.548C209.83 224.919 207.345 226.35 204.591 226.35ZM203.987 213.584C201.077 213.584 199.196 216.557 199.084 219.44C198.994 221.923 200.224 224.696 204.031 224.986C204.211 225.008 204.412 225.008 204.591 225.008C206.874 225.008 208.913 223.824 210.054 221.834C211.108 220.022 211.197 217.92 210.278 216.334C209.249 214.567 207.009 213.584 203.987 213.584Z" fill="#C8F2E9"/>
<path d="M95.3207 5.32531C118.63 9.19354 121.384 24.8452 120.937 44.7901C120.511 64.735 132.67 77.7482 140.91 77.7482C140.91 77.7482 130.05 81.6613 121.81 77.7482C113.547 73.8354 105.307 84.6799 84.0353 79.4923C62.7633 74.2825 43.6411 58.8543 52.7768 32.0898C61.8901 5.32531 79.6915 2.70922 95.3207 5.32531Z" fill="#7BE1C9"/>
<path d="M84.5728 36.7398C84.5728 36.7398 92.6338 20.462 100.695 28.668C108.756 36.874 88.872 51.296 85.1102 60.4636C85.1102 60.4636 64.1517 40.3174 72.7501 28.668C81.3484 17.0186 84.5728 36.7398 84.5728 36.7398Z" fill="white"/>
<path d="M252.688 95.2552C252.688 95.2552 260.748 78.9774 268.811 87.1834C276.871 95.3894 256.987 109.811 253.225 118.979C253.225 118.979 232.267 98.8328 240.865 87.1834C249.464 75.534 252.688 95.2552 252.688 95.2552Z" fill="#65BAA6"/>
<path d="M263.368 64.4436C286.276 68.2672 288.985 83.6281 288.559 103.238C288.134 122.847 300.09 135.637 308.196 135.637C308.196 135.637 297.516 139.483 289.41 135.637C281.304 131.791 273.177 142.457 252.263 137.336C231.348 132.216 212.562 117.034 221.519 90.7385C230.498 64.4436 248.008 61.8947 263.368 64.4436Z" fill="white"/>
<path d="M252.688 95.2555C252.688 95.2555 260.748 78.9776 268.811 87.1836C276.871 95.3895 256.987 109.811 253.225 118.979C253.225 118.979 232.267 98.833 240.865 87.1836C249.464 75.5342 252.688 95.2555 252.688 95.2555Z" fill="#7BE1C9"/>
<path d="M184.623 264.315C184.48 265.716 184.257 267.088 183.949 268.423C180.008 285.423 162.327 297.209 130.781 299.352C67.0838 303.671 31.9904 299.832 19.4908 269.593C16.6641 262.758 15.5677 253.926 15.7224 244.278C16.2419 211.199 31.3749 168.426 41.6057 163.041C54.8258 156.081 64.1998 159.681 64.1998 159.681C85.5925 164.24 119.724 226.876 146.406 229.275C173.085 231.676 186.489 245.673 184.623 264.315Z" fill="#95E7D4"/>
<path d="M44.4883 201.198C44.4883 201.198 60.3526 213.917 65.8808 228.076C71.4093 242.236 71.4093 254.714 82.9467 257.113C94.4842 259.512 116.118 260.953 137.992 254.473C159.865 247.994 160.346 240.314 137.271 236.236C114.196 232.156 88.9576 210.318 81.7467 194.719C74.536 179.118 74.7756 172.88 70.2091 168.801C65.6427 164.722 58.9113 163.281 52.1815 171.2C45.4517 179.118 41.6043 192.318 44.4883 201.198Z" fill="#65BAA6"/>
<path d="M92.7059 158.744C92.9826 158.367 93.3244 158.028 93.5872 157.646C94.7657 155.937 93.4744 154 92.0038 152.999C91.0049 152.32 90.8563 151.779 91.1007 150.533C91.294 149.548 91.8539 148.895 91.6636 147.869C91.506 147.012 91.1301 145.788 90.4589 145.23C89.7724 144.659 88.7611 144.705 87.9694 144.369C86.0054 143.533 87.8301 141.971 86.992 140.506C85.7364 138.312 82.1471 138.838 80.0116 138.514C80.0272 138.517 80.0379 138.513 80.041 138.497C78.207 137.769 77.8869 135.845 75.5349 136.235C74.4246 136.419 73.6544 137.115 72.7281 137.66C71.1214 138.607 69.7683 137.307 68.2127 137.89C66.4545 138.551 65.0519 140.134 64.5572 141.942C63.8689 144.458 62.4092 143.722 60.4221 144.625C59.3674 145.105 58.0545 145.44 58.2742 146.915C58.3918 147.702 59.0876 148.378 59.1432 149.158C59.2129 150.154 58.2694 150.719 57.7143 151.46C57.1174 152.258 56.7279 153.422 57.1314 154.379C57.5659 155.414 58.7829 155.922 58.8401 157.182C58.919 158.937 56.4463 160.376 57.4546 162.293C58.121 163.561 59.5653 163.561 60.5257 164.371C61.1706 164.916 61.0792 165.73 61.005 166.459C60.8026 168.457 61.7318 170.229 64.0777 169.767C65.7865 169.431 67.0345 169.238 68.2483 170.706C69.3076 171.987 70.3483 172.622 72.1391 172.471C73.2771 172.374 74.3318 171.903 75.4205 171.598C76.4411 171.313 76.755 171.483 77.6705 171.765C79.6019 172.361 80.7198 170.522 82.5152 170.545C83.2048 170.555 83.6581 171.073 84.3616 171.191C85.1781 171.327 86.0703 171.058 86.7694 170.647C87.6878 170.107 88.1223 169.466 88.4347 168.464C88.7039 167.6 88.8972 167.293 89.7337 166.94C91.8539 166.047 93.0075 165.068 92.8683 162.594C92.8125 161.616 92.1151 160.831 92.2219 159.869C92.2714 159.431 92.4646 159.073 92.7059 158.744Z" fill="#1C2A47"/>
<path d="M170.04 303.111C170.04 306.511 138.402 309.27 99.3723 309.27C60.3433 309.27 28.7043 306.513 28.7043 303.111C28.7043 299.708 60.3433 296.951 99.3723 296.951C138.402 296.952 170.04 299.71 170.04 303.111Z" fill="#DAE1F0"/>
<path d="M93.0429 189.839C93.0429 189.839 106.424 203.918 111.872 205.279L103.138 210.799L91.5197 204.318C91.5213 204.318 87.1946 192.799 93.0429 189.839Z" fill="#B5C4E2"/>
<path d="M93.0433 189.839L92.9304 189.946C92.9318 189.948 96.2783 193.47 100.31 197.162C102.325 199.009 104.511 200.901 106.538 202.416C107.553 203.174 108.526 203.838 109.421 204.358C110.316 204.877 111.131 205.253 111.835 205.428L111.872 205.279L111.79 205.148L103.135 210.619L91.5974 204.184L91.5217 204.318L91.6669 204.264C91.6669 204.264 91.6608 204.248 91.6499 204.22C91.483 203.764 90.1344 199.935 90.136 196.281C90.136 194.964 90.3108 193.671 90.7716 192.57C91.2324 191.468 91.9716 190.557 93.1143 189.977L93.0433 189.839L92.9304 189.946L93.0433 189.839L92.9736 189.703C91.7583 190.316 90.965 191.296 90.4855 192.45C90.0046 193.605 89.8268 194.936 89.8268 196.281C89.8284 200.256 91.3747 204.365 91.3778 204.374L91.3979 204.427L103.146 210.979L112.262 205.216L111.911 205.129C111.252 204.965 110.457 204.603 109.577 204.091C106.495 202.304 102.382 198.71 99.0495 195.568C97.3824 193.996 95.9087 192.537 94.8524 191.471C94.3236 190.938 93.8999 190.503 93.6077 190.203C93.4622 190.051 93.3494 189.934 93.2722 189.855C93.1964 189.775 93.1562 189.733 93.1562 189.733L93.0772 189.651L92.9752 189.703L93.0433 189.839Z" fill="#3D5C9B"/>
<path d="M100.133 220.036C100.133 220.036 121.486 216.718 134.627 222.638C147.766 228.555 144.242 238.476 140.075 246.955C135.907 255.434 132.063 258.635 132.063 258.635L124.051 255.275C124.051 255.275 126.935 240.876 131.743 233.676C131.743 233.676 112.994 243.595 102.898 243.115C92.8032 242.634 92.9624 223.756 92.9624 223.756L100.133 220.036Z" fill="#1C2A47"/>
<path d="M69.4686 174.523C69.4686 174.523 63.9587 177.441 59.7928 179.04C55.627 180.64 54.3449 186.799 56.748 191.279C59.1511 195.759 65.1603 207.198 67.7242 213.998C70.2881 220.796 71.7711 226.396 71.7711 226.396C71.7711 226.396 85.752 229.076 93.5241 226.275C101.296 223.476 100.135 220.038 100.135 220.038C100.135 220.038 95.1276 202.479 94.4056 197.758C94.4056 197.758 96.5689 192.878 94.806 188.56C93.0432 184.24 88.4767 182.48 86.2329 179.84C83.989 177.202 75.2968 173.765 69.4686 174.523Z" fill="white"/>
<path d="M86.4756 156.342C86.293 158.741 86.0811 161.151 86.4075 164.501C86.6672 167.237 85.3498 169.406 81.5425 172.478C81.5425 172.478 80.1477 172.604 78.572 172.142C78.5426 172.142 78.5148 172.133 78.4854 172.123L78.841 174.754L78.9184 175.311L78.9663 175.715C78.9663 175.715 79.0235 177.403 77.0425 177.883C75.0524 178.364 70.9669 176.443 69.4668 174.524C69.4668 174.524 69.7065 167.325 69.1019 164.503C69.1019 164.503 67.2462 161.441 66.2179 157.246C65.1989 153.042 68.3519 148.952 71.2854 147.446C74.2282 145.948 83.1121 145.9 85.8137 152.025C85.8121 152.022 86.6595 153.941 86.4756 156.342Z" fill="#B5C4E2"/>
<path d="M86.4756 156.342L86.3211 156.329C86.2082 157.818 86.0829 159.315 86.0829 161.043C86.0829 162.099 86.1293 163.24 86.2546 164.515C86.2747 164.731 86.2856 164.943 86.2856 165.151C86.284 166.342 85.9483 167.43 85.1768 168.585C84.4036 169.738 83.1912 170.952 81.4468 172.358L81.5443 172.479L81.5303 172.324H81.5242C81.4902 172.327 81.331 172.338 81.0804 172.338C80.5515 172.338 79.6191 172.286 78.6171 171.992L78.5954 171.986H78.5737V172.002L78.5752 171.986H78.5737V172.002L78.5752 171.986L78.566 171.984L78.5366 171.975L78.3015 171.897L78.6913 174.772L78.7686 175.329L78.9216 175.306L78.7686 175.325L78.8164 175.729L78.9695 175.71L78.815 175.713V175.715V175.724C78.815 175.792 78.8026 176.194 78.5737 176.62C78.4592 176.835 78.2907 177.057 78.0417 177.253C77.7912 177.448 77.4587 177.619 77.0102 177.728C76.8154 177.775 76.5928 177.799 76.3515 177.798C75.3278 177.799 73.9547 177.377 72.6851 176.739C71.4139 176.103 70.2388 175.252 69.5923 174.422L69.4702 174.518L69.6247 174.523C69.6247 174.521 69.6711 173.11 69.6711 171.291C69.6711 170.146 69.6525 168.838 69.5907 167.618C69.529 166.397 69.4268 165.267 69.2551 164.464L69.249 164.44L69.2351 164.418C69.2351 164.418 69.2288 164.407 69.215 164.384C69.0124 164.04 67.3268 161.114 66.3681 157.203C66.2367 156.664 66.1763 156.127 66.1763 155.596C66.1763 153.841 66.8413 152.158 67.8248 150.75C68.8067 149.343 70.1072 148.216 71.3551 147.575C71.8283 147.335 72.4747 147.128 73.2309 146.983C73.9871 146.837 74.8561 146.754 75.7763 146.754C77.6087 146.754 79.6469 147.088 81.4423 147.92C83.2376 148.753 84.7886 150.081 85.6701 152.079L85.6717 152.082C85.7072 152.164 86.3473 153.679 86.3458 155.65C86.3458 155.869 86.3381 156.095 86.3211 156.325L86.4756 156.342L86.6303 156.354C86.6489 156.116 86.6566 155.883 86.6566 155.656C86.6566 153.554 85.9592 151.972 85.9546 151.96C85.039 149.882 83.4201 148.5 81.5737 147.645C79.7257 146.788 77.6458 146.45 75.7763 146.45C74.8376 146.45 73.9516 146.535 73.1737 146.685C72.3958 146.834 71.7263 147.046 71.216 147.307C69.9155 147.975 68.5855 149.132 67.5726 150.58C66.5613 152.027 65.8701 153.768 65.8687 155.602C65.8687 156.156 65.932 156.719 66.068 157.282C67.1026 161.501 68.966 164.574 68.9707 164.582L69.1037 164.501L68.9522 164.534C69.1175 165.304 69.2211 166.426 69.2815 167.638C69.3417 168.85 69.3603 170.153 69.3603 171.296C69.3603 172.202 69.348 173.008 69.3372 173.587C69.3309 173.876 69.3247 174.109 69.3216 174.269C69.317 174.43 69.3139 174.516 69.3139 174.516L69.3123 174.572L69.3464 174.617C70.0407 175.505 71.2422 176.369 72.5444 177.02C73.8464 177.672 75.2443 178.109 76.3499 178.11C76.6114 178.11 76.8573 178.086 77.0814 178.032C77.5685 177.915 77.9444 177.723 78.2303 177.499C78.6603 177.163 78.8845 176.753 78.9989 176.412C79.1134 176.073 79.1226 175.802 79.1226 175.727V175.708V175.701L79.0731 175.289L78.9958 174.731L78.6402 172.102L78.487 172.122L78.4375 172.269C78.4669 172.278 78.5087 172.295 78.5737 172.296V172.142L78.5304 172.29C79.5726 172.594 80.533 172.648 81.0819 172.648C81.3787 172.648 81.5551 172.633 81.5597 172.633L81.6061 172.628L81.6432 172.599C83.4 171.182 84.6355 169.951 85.4365 168.758C86.2376 167.564 86.5993 166.403 86.5979 165.153C86.5979 164.933 86.5871 164.713 86.5654 164.489C86.4417 163.223 86.3953 162.093 86.3953 161.046C86.3953 159.334 86.519 157.845 86.6335 156.356L86.4756 156.342Z" fill="#3D5C9B"/>
<path d="M69.7979 160.808C69.7979 160.808 69.8148 160.827 69.8474 160.862C69.9571 160.984 70.234 161.301 70.4814 161.662C70.7304 162.022 70.9469 162.429 70.9453 162.718C70.9453 162.763 70.9406 162.804 70.9299 162.843C70.8603 163.099 70.7164 163.246 70.5834 163.393C70.4504 163.538 70.3267 163.688 70.3267 163.936C70.3267 164.055 70.3545 164.195 70.421 164.367C70.752 165.239 70.9639 165.6 70.9655 165.602C70.9763 165.62 70.9994 165.627 71.018 165.616C71.0365 165.605 71.0428 165.582 71.032 165.563C71.032 165.563 71.0195 165.542 70.9949 165.495C70.9207 165.355 70.7413 164.991 70.4938 164.339C70.4303 164.172 70.4056 164.041 70.4056 163.935C70.4056 163.715 70.5092 163.59 70.6422 163.444C70.7737 163.298 70.9313 163.138 71.0057 162.863C71.018 162.817 71.0243 162.769 71.0243 162.718C71.0227 162.349 70.7289 161.866 70.4382 161.466C70.1473 161.068 69.8567 160.757 69.8551 160.757C69.8413 160.742 69.8164 160.74 69.801 160.756C69.784 160.768 69.7825 160.793 69.7979 160.808Z" fill="#273B63"/>
<path d="M85.5701 157.242C85.5701 157.242 84.4286 156.882 82.8958 157.962C82.8958 157.962 83.1665 156.731 84.0683 156.581C84.97 156.433 85.5701 157.242 85.5701 157.242Z" fill="#273B63"/>
<path d="M79.4113 158.334C79.4113 158.334 78.593 157.342 77.3958 157.517C76.1986 157.691 75.2937 158.158 75.2937 158.158C75.2937 158.158 75.8196 156.992 76.9875 156.729C78.1569 156.468 79.091 157.138 79.4113 158.334Z" fill="#273B63"/>
<path d="M83.3023 160.271C83.2606 160.875 83.4199 161.377 83.6596 161.394C83.8994 161.411 84.1283 160.935 84.1717 160.332C84.2133 159.728 84.0541 159.226 83.8143 159.209C83.5746 159.193 83.3441 159.669 83.3023 160.271Z" fill="#273B63"/>
<path d="M78.0446 160.992C78.0029 161.596 78.1622 162.098 78.4019 162.115C78.6417 162.132 78.8706 161.656 78.914 161.052C78.9556 160.449 78.7964 159.947 78.5566 159.93C78.3153 159.913 78.0864 160.388 78.0446 160.992Z" fill="#273B63"/>
<path d="M81.8504 161.102C81.8504 161.102 81.9371 161.253 82.0687 161.491C82.265 161.847 82.5588 162.402 82.8049 162.936C83.0508 163.469 83.2441 163.989 83.2441 164.258C83.2441 164.337 83.2272 164.391 83.2009 164.416C83.1127 164.504 82.9395 164.601 82.7321 164.694C82.4213 164.831 82.0314 164.961 81.719 165.053C81.5627 165.1 81.4268 165.138 81.3293 165.165C81.2318 165.191 81.1746 165.206 81.1746 165.206C81.1545 165.211 81.142 165.232 81.1468 165.253C81.1513 165.273 81.173 165.285 81.1931 165.28C81.1931 165.28 81.6093 165.175 82.0748 165.022C82.3068 164.945 82.5511 164.857 82.7631 164.765C82.975 164.67 83.153 164.573 83.255 164.471C83.3045 164.422 83.3215 164.348 83.3215 164.258C83.3215 164.057 83.2317 163.764 83.1003 163.427C82.7058 162.424 81.9185 161.063 81.9185 161.063C81.9077 161.044 81.8846 161.038 81.866 161.049C81.8475 161.058 81.8398 161.083 81.8504 161.102Z" fill="#273B63"/>
<path d="M81.3993 166.723C81.3993 166.723 81.3559 166.729 81.2756 166.736C81.1951 166.742 81.0807 166.748 80.94 166.748C80.4001 166.748 79.4813 166.654 78.7017 166.108C78.6847 166.096 78.6601 166.101 78.6476 166.118C78.6352 166.135 78.6399 166.159 78.6569 166.172C79.4567 166.729 80.3908 166.825 80.9384 166.825C81.2261 166.825 81.407 166.799 81.4086 166.799C81.4303 166.796 81.4441 166.776 81.4412 166.756C81.4396 166.736 81.4195 166.72 81.3993 166.723Z" fill="#273B63"/>
<path d="M73.8138 153.922C73.8138 153.922 74.4741 155.182 74.1137 158.001C73.7534 160.82 73.5725 159.801 73.3327 161.061C73.0931 162.321 73.7534 163.281 72.9122 164.3C72.071 165.321 73.3329 161.6 70.6885 159.38C68.0442 157.16 68.7061 163.7 69.3663 164.96C70.0266 166.219 71.1092 166.7 71.1092 166.7L69.4267 168.679C69.4267 168.679 61.3142 164.839 61.7349 156.74C62.1556 148.641 66.903 146.42 66.903 146.42C66.903 146.42 70.8694 140.841 80.9039 143.421C90.94 146.001 89.709 154.209 89.6177 155.42C89.3781 158.6 86.2528 158.659 86.2528 158.659C86.2528 158.659 86.5527 155.299 84.3894 153.319C84.3894 153.319 83.7879 154.699 81.6848 155.239C79.5818 155.78 80.604 153.859 81.0245 153.019C81.0245 153.019 79.8229 154.639 77.8993 154.639C75.9771 154.642 73.8138 153.922 73.8138 153.922Z" fill="#1C2A47"/>
<path d="M78.9182 175.31C78.0042 175.07 76.5909 174.532 74.8326 173.362C71.5929 171.202 72.131 167.123 72.131 167.123C73.5151 170.425 77.9006 171.864 77.9006 171.864L78.5733 172.142C78.5439 172.142 78.516 172.133 78.4866 172.123L78.8424 174.754L78.9182 175.31Z" fill="#273B63"/>
<path d="M59.0707 180.64C63.3015 180.204 66.5227 184.799 70.6083 193.119C74.6936 201.439 79.0205 214.158 79.0205 214.158C79.0205 214.158 98.3302 211.997 104.579 207.039C104.579 207.039 105.941 202 106.903 200.799C107.865 199.601 109.707 198.72 110.91 198.079C112.111 197.44 112.913 196.8 112.913 196.8L108.185 209.359C108.185 209.359 104.98 212.319 103.218 213.999C101.455 215.679 82.5462 225.597 75.0153 223.677C67.4845 221.757 58.1087 202 57.068 197.2C56.0273 192.399 53.6228 181.199 59.0707 180.64Z" fill="#B5C4E2"/>
<path d="M59.0704 180.64L59.0858 180.792C59.2652 180.773 59.4415 180.764 59.6162 180.764C60.578 180.764 61.4857 181.039 62.3765 181.579C63.7126 182.386 65.0069 183.794 66.329 185.749C67.6512 187.704 69.0042 190.206 70.4686 193.185C72.5084 197.336 74.61 202.594 76.2011 206.81C76.9975 208.919 77.6655 210.767 78.1342 212.088C78.3692 212.75 78.5533 213.28 78.68 213.641C78.8069 214.006 78.8734 214.204 78.8734 214.204L78.9134 214.321L79.0372 214.307C79.0403 214.307 83.8712 213.767 89.4876 212.605C92.2959 212.023 95.3005 211.288 97.999 210.384C100.697 209.481 103.088 208.412 104.676 207.154L104.717 207.124L104.73 207.074C104.73 207.074 104.752 206.995 104.791 206.857C104.927 206.368 105.282 205.127 105.708 203.88C105.919 203.256 106.15 202.632 106.377 202.099C106.605 201.568 106.833 201.128 107.025 200.888C107.487 200.312 108.176 199.8 108.898 199.354C109.622 198.911 110.379 198.53 110.982 198.208C112.196 197.562 113.003 196.917 113.01 196.914L112.914 196.793L112.768 196.739L108.041 209.299L108.187 209.354L108.081 209.24C108.081 209.24 104.876 212.2 103.111 213.881C103.02 213.968 102.868 214.089 102.666 214.23C101.902 214.768 100.419 215.638 98.5077 216.636C95.6393 218.132 91.801 219.915 87.9382 221.324C84.0768 222.732 80.1878 223.764 77.2373 223.763C76.4316 223.763 75.6971 223.686 75.0538 223.522C73.2244 223.059 71.2388 221.483 69.2965 219.295C66.3801 216.016 63.5502 211.372 61.3575 207.101C60.2611 204.966 59.3224 202.926 58.6096 201.194C57.8966 199.465 57.411 198.042 57.2194 197.16C56.6827 194.689 55.7874 190.526 55.789 187.009C55.789 185.356 55.9885 183.848 56.5033 182.739C56.76 182.183 57.0941 181.729 57.5162 181.397C57.9399 181.065 58.4533 180.852 59.0889 180.787L59.0704 180.64L59.055 180.487C58.3683 180.556 57.7931 180.792 57.323 181.161C56.6193 181.715 56.1601 182.555 55.8756 183.565C55.591 184.575 55.4781 185.76 55.4781 187.018C55.4781 190.582 56.3796 194.758 56.9163 197.232C57.1823 198.455 57.9647 200.59 59.1106 203.155C60.8286 206.998 63.36 211.791 66.1745 215.809C67.5817 217.821 69.0585 219.636 70.5444 221.044C72.0305 222.451 73.5243 223.455 74.9765 223.826C75.6522 223.999 76.4115 224.075 77.2357 224.075C79.3837 224.075 81.9784 223.548 84.6954 222.734C88.7701 221.514 93.1154 219.652 96.5963 217.95C98.3376 217.099 99.8608 216.286 101.027 215.616C101.61 215.28 102.103 214.98 102.491 214.724C102.879 214.469 103.159 214.263 103.325 214.108C104.205 213.269 105.446 212.109 106.468 211.158C106.979 210.683 107.435 210.262 107.763 209.958C107.927 209.806 108.058 209.686 108.149 209.6C108.241 209.514 108.29 209.471 108.29 209.471L108.316 209.446L113.254 196.327L112.815 196.678L112.807 196.683C112.719 196.753 111.952 197.347 110.837 197.943C110.239 198.261 109.475 198.643 108.736 199.098C107.996 199.552 107.282 200.08 106.782 200.702C106.651 200.864 106.521 201.082 106.39 201.339C105.929 202.243 105.442 203.651 105.066 204.841C104.692 206.029 104.43 206.995 104.43 206.997L104.58 207.037L104.484 206.916C102.947 208.136 100.581 209.2 97.9015 210.096C93.8808 211.442 89.1536 212.42 85.4347 213.059C83.5742 213.379 81.9662 213.615 80.8232 213.772C80.2512 213.849 79.7965 213.907 79.4841 213.945C79.328 213.964 79.2073 213.98 79.127 213.989C79.0449 213.999 79.0032 214.003 79.0032 214.003L79.0202 214.157L79.1672 214.106C79.1656 214.104 74.8403 201.385 70.7471 193.049C68.7909 189.065 67.0311 185.933 65.2528 183.782C64.3636 182.707 63.4683 181.876 62.5373 181.313C61.6065 180.749 60.6384 180.455 59.6162 180.455C59.4307 180.455 59.2436 180.466 59.055 180.485L59.0704 180.64Z" fill="#3D5C9B"/>
<path d="M71.7708 226.397C71.7708 226.397 67.1641 242.475 78.7017 250.636C90.2391 258.796 120.046 240.557 130.621 228.078C130.621 228.078 146.806 250.316 160.587 257.034L167.158 250.954C167.158 250.954 148.569 223.757 138.794 217.516C129.019 211.277 97.9309 223.436 97.9309 223.436C97.9309 223.436 79.9031 227.757 71.7708 226.397Z" fill="#3D5C9B"/>
<path d="M189.11 253.435C188.47 253.275 187.99 253.914 187.268 254.073C186.547 254.234 177.573 257.274 173.806 258.074L167.157 250.954L160.586 257.035L167.359 262.453C168.06 263.74 169.546 266.209 171.484 267.914C174.208 270.313 176.372 269.275 177.573 268.395C178.775 267.514 180.938 265.115 183.101 263.435C185.266 261.754 188.311 258.635 189.11 256.554C189.912 254.475 189.751 253.594 189.11 253.435Z" fill="#B5C4E2"/>
<path d="M189.11 253.433L189.147 253.285C189.065 253.264 188.983 253.253 188.904 253.255C188.745 253.255 188.594 253.294 188.452 253.35C188.241 253.433 188.048 253.556 187.85 253.666C187.653 253.778 187.453 253.875 187.234 253.924C187.182 253.937 187.103 253.958 186.996 253.989C186.193 254.225 183.771 255.022 181.104 255.852C178.439 256.685 175.53 257.55 173.776 257.922L173.809 258.074L173.922 257.969L167.165 250.738L160.351 257.043L167.263 262.573L167.36 262.452L167.224 262.526C167.929 263.822 169.42 266.302 171.381 268.031C172.652 269.151 173.826 269.548 174.842 269.548C176.038 269.548 177 269.004 177.664 268.52C178.281 268.068 179.121 267.247 180.082 266.328C181.043 265.409 182.123 264.392 183.195 263.558C184.286 262.711 185.593 261.507 186.73 260.249C187.868 258.991 188.837 257.686 189.254 256.612C189.635 255.619 189.807 254.892 189.807 254.361C189.807 254.064 189.753 253.825 189.639 253.641C189.527 253.456 189.348 253.336 189.147 253.287L189.11 253.433L189.074 253.584C189.208 253.62 189.303 253.685 189.376 253.8C189.448 253.917 189.499 254.097 189.499 254.358C189.501 254.822 189.341 255.525 188.967 256.498C188.58 257.503 187.628 258.797 186.501 260.04C185.376 261.282 184.079 262.477 183.006 263.31C181.916 264.156 180.833 265.18 179.869 266.101C178.91 267.021 178.066 267.841 177.482 268.269C176.845 268.734 175.943 269.239 174.842 269.237C173.908 269.235 172.816 268.88 171.585 267.795C169.674 266.113 168.189 263.656 167.495 262.377L167.479 262.349L160.822 257.024L167.148 251.171L173.753 258.242L173.838 258.224C175.733 257.821 178.918 256.86 181.725 255.981C183.127 255.541 184.436 255.12 185.435 254.802C185.938 254.641 186.361 254.506 186.683 254.405C186.844 254.356 186.977 254.314 187.082 254.283C187.189 254.253 187.264 254.23 187.301 254.223C187.654 254.145 187.941 253.966 188.199 253.82C188.328 253.746 188.451 253.68 188.568 253.633C188.685 253.587 188.795 253.561 188.904 253.561C188.958 253.561 189.014 253.566 189.074 253.582L189.11 253.433Z" fill="#3D5C9B"/>
<path d="M124.945 254.915C124.945 254.915 123.579 260.059 122.761 261.418C121.942 262.776 118.758 266.27 119.304 268.309C119.85 270.346 122.134 271.16 125.774 272.034C129.414 272.908 129.949 274.999 132.224 275.873C134.499 276.748 137.115 277.12 137.752 276.633C138.389 276.149 139.354 276.552 140.517 275.273C141.734 273.931 139.155 272.873 137.792 271.713C136.911 270.963 134.593 268.695 131.953 266.366C129.313 264.037 132.063 257.833 132.063 257.833L124.945 254.915Z" fill="#B5C4E2"/>
<path d="M124.945 254.915L124.795 254.875C124.795 254.875 124.773 254.955 124.735 255.097C124.599 255.597 124.247 256.868 123.841 258.161C123.638 258.808 123.42 259.46 123.211 260.022C123.003 260.585 122.797 261.058 122.628 261.338C122.446 261.64 122.133 262.066 121.767 262.563C121.218 263.307 120.553 264.21 120.021 265.127C119.491 266.046 119.087 266.978 119.086 267.804C119.086 267.991 119.107 268.175 119.154 268.349C119.296 268.88 119.556 269.34 119.919 269.731C120.465 270.322 121.238 270.767 122.214 271.152C123.19 271.534 124.37 271.854 125.737 272.184C127.53 272.616 128.543 273.338 129.409 274.07C129.842 274.438 130.237 274.81 130.671 275.148C131.106 275.487 131.58 275.791 132.166 276.016C133.772 276.631 135.533 277 136.696 277C136.948 277 137.172 276.984 137.365 276.945C137.557 276.907 137.72 276.849 137.845 276.753C137.981 276.65 138.137 276.591 138.326 276.544C138.609 276.47 138.958 276.43 139.352 276.28C139.747 276.13 140.18 275.871 140.63 275.375C140.87 275.113 140.989 274.837 140.987 274.562C140.987 274.257 140.843 273.977 140.633 273.722C140.316 273.337 139.835 272.983 139.331 272.633C138.827 272.284 138.298 271.94 137.891 271.592C137.457 271.222 136.656 270.467 135.636 269.516C134.617 268.564 133.376 267.415 132.055 266.247C131.65 265.891 131.379 265.437 131.206 264.918C131.033 264.401 130.962 263.819 130.962 263.218C130.962 261.967 131.271 260.628 131.582 259.612C131.738 259.101 131.893 258.672 132.01 258.369C132.069 258.217 132.117 258.098 132.151 258.016C132.168 257.976 132.182 257.945 132.19 257.924C132.199 257.905 132.204 257.892 132.204 257.892L132.268 257.747L124.841 254.7L124.796 254.87L124.945 254.915L124.886 255.057L132.004 257.976L132.063 257.835L131.922 257.774C131.921 257.777 131.605 258.49 131.288 259.524C130.973 260.56 130.654 261.92 130.654 263.223C130.654 263.848 130.727 264.46 130.914 265.021C131.099 265.58 131.401 266.087 131.852 266.485C133.17 267.647 134.409 268.797 135.428 269.747C136.447 270.698 137.246 271.452 137.693 271.833C138.265 272.319 139.028 272.777 139.639 273.236C139.945 273.467 140.212 273.696 140.396 273.921C140.582 274.148 140.681 274.36 140.679 274.566C140.679 274.749 140.605 274.943 140.401 275.169C139.838 275.787 139.348 275.984 138.898 276.102C138.674 276.159 138.459 276.194 138.25 276.247C138.043 276.299 137.84 276.372 137.656 276.51C137.59 276.563 137.469 276.613 137.304 276.645C137.14 276.678 136.932 276.696 136.694 276.696C135.593 276.696 133.847 276.334 132.276 275.729C131.726 275.518 131.28 275.233 130.86 274.906C130.23 274.417 129.661 273.828 128.902 273.278C128.143 272.728 127.19 272.216 125.806 271.884C123.989 271.449 122.517 271.028 121.445 270.472C120.909 270.193 120.474 269.883 120.142 269.523C119.809 269.163 119.579 268.755 119.447 268.269C119.409 268.124 119.39 267.97 119.39 267.806C119.39 267.324 119.554 266.761 119.82 266.176C120.219 265.297 120.841 264.364 121.436 263.534C122.031 262.706 122.596 261.982 122.888 261.499C123.105 261.139 123.343 260.56 123.587 259.882C124.32 257.852 125.087 254.959 125.089 254.955L124.945 254.915L124.886 255.057L124.945 254.915Z" fill="#3D5C9B"/>
<path d="M136.829 182.077L129.262 203.915L127.744 208.253C127.639 208.543 127.397 208.763 127.099 208.838L107.783 213.879C107.389 213.986 107.024 213.823 106.821 213.544C106.639 213.313 106.571 212.997 106.678 212.679L107.706 209.761L117.119 182.201C117.244 181.836 117.57 181.586 117.955 181.577L134.387 180.915L135.917 180.857C136.569 180.829 137.041 181.463 136.829 182.077Z" fill="#6C8AC5"/>
<path d="M136.829 182.076L129.262 203.915L127.744 208.255C127.639 208.543 127.397 208.763 127.099 208.838L107.783 213.881C107.389 213.985 107.024 213.823 106.821 213.543C110.33 210.654 119.927 202.409 126.377 193.596C130.972 187.318 133.27 183.238 134.385 180.916L135.915 180.859C136.569 180.829 137.04 181.463 136.829 182.076Z" fill="#486DB7"/>
<path d="M132.915 194.733C132.906 194.719 132.892 194.707 132.883 194.691C133.11 194.461 133.408 194.066 133.289 193.655C133.105 193.017 132.162 192.614 130.832 192.649C129.502 192.684 128.806 193.131 129.085 193.405C129.363 193.681 130.104 194.026 130.928 193.91L131.115 194.136C130.86 194.158 130.589 194.199 130.302 194.268C129.01 194.585 128.424 195.17 128.754 195.38C129.084 195.589 129.881 195.769 130.662 195.485L130.846 195.628C130.648 195.652 130.442 195.687 130.227 195.74C128.936 196.054 128.35 196.639 128.679 196.849C129.01 197.059 129.807 197.24 130.588 196.954L131.019 197.295C130.283 197.527 129.467 197.873 129.61 198.14C129.821 198.53 131.022 198.621 131.022 198.621L130.512 200.211C130.512 200.211 132.105 199.459 132.644 198.65C132.957 198.184 132.862 197.693 132.612 197.378C132.791 197.12 133.063 196.62 132.839 196.206C132.791 196.117 132.723 196.04 132.644 195.968C132.816 195.734 133.156 195.184 132.915 194.733Z" fill="#B5C4E2"/>
<path d="M132.915 194.733L133.051 194.66C133.037 194.635 133.025 194.62 133.017 194.613L133.011 194.604L133.009 194.606L133.011 194.604L133.009 194.606L133.011 194.604L132.967 194.635L133.012 194.607L133.011 194.604L132.967 194.635L133.012 194.607L132.881 194.689L132.991 194.798C133.093 194.693 133.209 194.56 133.303 194.399C133.396 194.239 133.468 194.052 133.468 193.844C133.468 193.767 133.458 193.688 133.436 193.61C133.383 193.428 133.28 193.266 133.138 193.127C132.922 192.918 132.624 192.761 132.262 192.654C131.899 192.547 131.47 192.49 130.991 192.49C130.937 192.49 130.883 192.49 130.829 192.491C130.247 192.507 129.78 192.598 129.448 192.727C129.281 192.792 129.148 192.864 129.047 192.949C128.998 192.993 128.954 193.038 128.924 193.091C128.893 193.143 128.871 193.206 128.871 193.272C128.869 193.363 128.914 193.451 128.978 193.512C129.12 193.652 129.341 193.791 129.621 193.9C129.899 194.008 130.236 194.085 130.603 194.085C130.717 194.085 130.833 194.078 130.951 194.062L130.929 193.91L130.81 194.008L130.997 194.233L131.116 194.136L131.104 193.98C130.841 194.003 130.563 194.043 130.266 194.116C129.726 194.247 129.302 194.427 129.005 194.613C128.857 194.705 128.74 194.8 128.655 194.899C128.611 194.948 128.577 194.999 128.551 195.053C128.526 195.107 128.509 195.165 128.509 195.226C128.509 195.282 128.525 195.339 128.554 195.388C128.583 195.437 128.625 195.476 128.672 195.507C128.794 195.584 128.958 195.652 129.151 195.701C129.344 195.752 129.57 195.783 129.811 195.783C130.096 195.783 130.406 195.74 130.714 195.626L130.662 195.481L130.566 195.603L130.75 195.747L130.846 195.624L130.827 195.472C130.625 195.497 130.414 195.53 130.19 195.586C129.65 195.717 129.227 195.897 128.93 196.082C128.781 196.175 128.664 196.271 128.579 196.369C128.535 196.417 128.501 196.47 128.475 196.524C128.45 196.578 128.433 196.634 128.433 196.697C128.433 196.751 128.449 196.809 128.478 196.858C128.508 196.908 128.549 196.947 128.596 196.977C128.718 197.055 128.882 197.122 129.075 197.172C129.268 197.221 129.494 197.254 129.735 197.254C130.02 197.254 130.331 197.209 130.639 197.095L130.586 196.95L130.49 197.073L130.921 197.413L131.017 197.291L130.971 197.144C130.626 197.254 130.266 197.387 129.981 197.529C129.839 197.6 129.715 197.674 129.619 197.756C129.572 197.798 129.53 197.838 129.496 197.89C129.463 197.941 129.437 198.002 129.437 198.072C129.437 198.117 129.449 198.168 129.472 198.21C129.513 198.283 129.572 198.343 129.636 198.392C129.751 198.476 129.892 198.537 130.038 198.586C130.481 198.731 131.002 198.767 131.008 198.769L131.019 198.615L130.872 198.568L130.252 200.495L130.574 200.345C130.577 200.343 130.979 200.153 131.453 199.859C131.927 199.564 132.473 199.173 132.769 198.731C132.924 198.5 132.994 198.255 132.992 198.025C132.992 197.738 132.888 197.478 132.729 197.279L132.609 197.373L132.735 197.462C132.805 197.361 132.888 197.226 132.955 197.069C133.021 196.914 133.074 196.735 133.074 196.547C133.074 196.409 133.045 196.264 132.972 196.127C132.912 196.019 132.831 195.928 132.745 195.851L132.641 195.967L132.766 196.058C132.836 195.963 132.929 195.822 133.007 195.654C133.085 195.486 133.15 195.289 133.15 195.077C133.15 194.938 133.12 194.794 133.048 194.658L132.915 194.733L132.779 194.807C132.825 194.892 132.844 194.983 132.844 195.077C132.844 195.224 132.796 195.383 132.729 195.526C132.663 195.668 132.579 195.794 132.519 195.876L132.435 195.989L132.539 196.084C132.61 196.147 132.666 196.21 132.701 196.278C132.748 196.365 132.766 196.454 132.766 196.55C132.766 196.681 132.728 196.821 132.672 196.95C132.616 197.081 132.544 197.2 132.482 197.289L132.417 197.384L132.488 197.473C132.607 197.621 132.684 197.817 132.684 198.027C132.684 198.196 132.637 198.378 132.513 198.561C132.27 198.928 131.747 199.318 131.291 199.599C131.062 199.741 130.849 199.858 130.694 199.94C130.617 199.98 130.553 200.013 130.51 200.034C130.489 200.045 130.471 200.053 130.461 200.059L130.444 200.067L130.51 200.205L130.657 200.253L131.228 198.476L131.033 198.462H131.02C130.959 198.456 130.663 198.427 130.368 198.357C130.221 198.324 130.073 198.276 129.958 198.222C129.842 198.17 129.766 198.103 129.745 198.063L129.726 198.072H129.746L129.745 198.063L129.726 198.072H129.746H129.731L129.746 198.076V198.072H129.731L129.746 198.076L129.749 198.069C129.757 198.049 129.803 197.997 129.882 197.943C130 197.859 130.184 197.768 130.393 197.679C130.601 197.593 130.836 197.509 131.065 197.438L131.344 197.349L130.614 196.776L130.533 196.805C130.263 196.905 129.989 196.943 129.735 196.943C129.52 196.943 129.321 196.915 129.152 196.872C128.984 196.83 128.846 196.77 128.761 196.716C128.747 196.707 128.744 196.7 128.743 196.7V196.697C128.743 196.692 128.744 196.678 128.755 196.657C128.774 196.617 128.818 196.557 128.893 196.493C129.117 196.293 129.589 196.051 130.263 195.888C130.471 195.836 130.669 195.804 130.864 195.78L131.232 195.733L130.689 195.306L130.609 195.336C130.339 195.436 130.065 195.474 129.811 195.474C129.596 195.474 129.397 195.446 129.228 195.402C129.06 195.359 128.922 195.301 128.837 195.247C128.823 195.236 128.82 195.231 128.818 195.231V195.226C128.818 195.222 128.82 195.208 128.831 195.186C128.849 195.147 128.894 195.088 128.968 195.023C129.193 194.824 129.664 194.581 130.339 194.417C130.618 194.349 130.881 194.309 131.129 194.289L131.424 194.265L130.993 193.744L130.907 193.756C130.804 193.77 130.702 193.777 130.601 193.777C130.28 193.777 129.978 193.709 129.732 193.613C129.486 193.517 129.293 193.393 129.194 193.293C129.176 193.272 129.18 193.272 129.179 193.272C129.179 193.272 129.179 193.266 129.188 193.25C129.204 193.222 129.253 193.171 129.335 193.122C129.459 193.047 129.653 192.968 129.907 192.911C130.161 192.851 130.473 192.809 130.836 192.801C130.889 192.799 130.94 192.799 130.991 192.799C131.597 192.799 132.107 192.897 132.477 193.061C132.663 193.141 132.811 193.239 132.921 193.348C133.031 193.456 133.103 193.571 133.139 193.697C133.153 193.748 133.161 193.797 133.161 193.846C133.161 193.978 133.113 194.116 133.037 194.244C132.961 194.373 132.861 194.492 132.771 194.583L132.684 194.668L132.749 194.773C132.763 194.794 132.774 194.805 132.779 194.812L132.782 194.814L132.831 194.777L132.777 194.807L132.782 194.814L132.831 194.777L132.777 194.807L132.915 194.733Z" fill="#3D5C9B"/>
<path d="M127.283 196.714C126.743 198.498 125.282 199.636 124.019 199.255C122.755 198.872 122.171 197.12 122.71 195.334C123.25 193.552 124.711 192.413 125.975 192.795C127.238 193.176 127.823 194.932 127.283 196.714Z" fill="#486DB7"/>
<path d="M183.949 268.423C180.008 285.423 162.327 297.209 130.781 299.352C67.0838 303.672 31.9904 299.832 19.4908 269.593C16.6641 262.758 15.5677 253.926 15.7224 244.278C20.5301 246.2 29.4805 251.449 39.2011 265.512C53.6226 286.391 82.7069 296.951 117.802 292.391C151.952 287.958 172.682 283.062 183.949 268.423Z" fill="#65BAA6"/>
</svg>
