<svg id="visual" viewBox="0 0 1300 484" width="1300" height="484" xmlns="http://www.w3.org/2000/svg" xmlns:xlink="http://www.w3.org/1999/xlink" version="1.1"><path d="M0 245L31 246.2C62 247.3 124 249.7 185.8 250C247.7 250.3 309.3 248.7 371.2 235.8C433 223 495 199 557 193.5C619 188 681 201 743 213.7C805 226.3 867 238.7 928.8 233.7C990.7 228.7 1052.3 206.3 1114.2 203.5C1176 200.7 1238 217.3 1269 225.7L1300 234L1300 485L1269 485C1238 485 1176 485 1114.2 485C1052.3 485 990.7 485 928.8 485C867 485 805 485 743 485C681 485 619 485 557 485C495 485 433 485 371.2 485C309.3 485 247.7 485 185.8 485C124 485 62 485 31 485L0 485Z" fill="#fa7268"></path><path d="M0 276L31 267.2C62 258.3 124 240.7 185.8 245C247.7 249.3 309.3 275.7 371.2 278C433 280.3 495 258.7 557 256.5C619 254.3 681 271.7 743 281.2C805 290.7 867 292.3 928.8 287.3C990.7 282.3 1052.3 270.7 1114.2 260.3C1176 250 1238 241 1269 236.5L1300 232L1300 485L1269 485C1238 485 1176 485 1114.2 485C1052.3 485 990.7 485 928.8 485C867 485 805 485 743 485C681 485 619 485 557 485C495 485 433 485 371.2 485C309.3 485 247.7 485 185.8 485C124 485 62 485 31 485L0 485Z" fill="#be5079"></path><path d="M0 330L31 331C62 332 124 334 185.8 327.3C247.7 320.7 309.3 305.3 371.2 307.3C433 309.3 495 328.7 557 330.2C619 331.7 681 315.3 743 304.3C805 293.3 867 287.7 928.8 289.8C990.7 292 1052.3 302 1114.2 308.8C1176 315.7 1238 319.3 1269 321.2L1300 323L1300 485L1269 485C1238 485 1176 485 1114.2 485C1052.3 485 990.7 485 928.8 485C867 485 805 485 743 485C681 485 619 485 557 485C495 485 433 485 371.2 485C309.3 485 247.7 485 185.8 485C124 485 62 485 31 485L0 485Z" fill="#723f71"></path><path d="M0 389L31 385C62 381 124 373 185.8 372C247.7 371 309.3 377 371.2 378.2C433 379.3 495 375.7 557 373.8C619 372 681 372 743 373C805 374 867 376 928.8 374.8C990.7 373.7 1052.3 369.3 1114.2 366.7C1176 364 1238 363 1269 362.5L1300 362L1300 485L1269 485C1238 485 1176 485 1114.2 485C1052.3 485 990.7 485 928.8 485C867 485 805 485 743 485C681 485 619 485 557 485C495 485 433 485 371.2 485C309.3 485 247.7 485 185.8 485C124 485 62 485 31 485L0 485Z" fill="#2c2c4f"></path><path d="M0 439L31 436.2C62 433.3 124 427.7 185.8 422.3C247.7 417 309.3 412 371.2 408.3C433 404.7 495 402.3 557 404.3C619 406.3 681 412.7 743 412.3C805 412 867 405 928.8 407.8C990.7 410.7 1052.3 423.3 1114.2 427.3C1176 431.3 1238 426.7 1269 424.3L1300 422L1300 485L1269 485C1238 485 1176 485 1114.2 485C1052.3 485 990.7 485 928.8 485C867 485 805 485 743 485C681 485 619 485 557 485C495 485 433 485 371.2 485C309.3 485 247.7 485 185.8 485C124 485 62 485 31 485L0 485Z" fill="#001220"></path></svg>