<svg width="538" height="449" viewBox="0 0 538 449" fill="none" xmlns="http://www.w3.org/2000/svg">
<g clip-path="url(#clip0_127_882)">
<path d="M159.788 446.776H361.403C360.055 426.605 379.647 413.738 397.483 405.492C419.91 395.125 442.787 384.738 461.522 368.288C480.261 351.831 494.583 328.055 494.073 302.615C493.507 274.619 475.691 250.276 469.447 223.034C462.053 190.768 471.316 157.303 476.222 124.528C481.125 91.7529 480.169 54.1996 457.529 30.7441C438.893 11.4245 410.145 6.90153 383.841 8.8467C357.538 10.7919 331.688 18.1193 305.321 18.2704C274.714 18.4499 244.927 8.98835 214.766 3.56828C184.606 -1.85177 151.828 -2.77714 125.26 12.9731C95.7188 30.4892 79.0702 68.6278 85.8808 103.169C90.6221 127.219 105.392 148.805 106.587 173.327C107.581 193.742 98.9555 213.326 88.7802 230.843C72.1409 259.501 50.6416 285.656 39.9925 317.232C29.3432 348.81 32.9993 389.167 59.349 408.505C87.4584 429.117 138.489 418.751 159.788 446.776Z" fill="#ECF0F7"/>
<path d="M396.088 124.481L432.838 55.5453L438.088 60.2619L399.938 132.825L396.088 124.481Z" fill="white"/>
<path d="M204.398 413.946C204.48 413.928 204.563 413.899 204.636 413.862C205.267 413.569 205.56 412.803 205.267 412.14C131.162 240.462 68.268 120.669 28.1799 74.8245C27.2928 73.8021 26.6437 73.0731 26.3877 72.6947C25.9853 72.1075 25.1988 71.9657 24.6319 72.3727C24.0649 72.7892 23.9278 73.5937 24.321 74.1901C24.6684 74.7014 25.2903 75.4114 26.3053 76.5756C66.229 122.221 128.967 241.778 202.972 413.217C203.228 413.785 203.831 414.081 204.398 413.946Z" fill="#7BE1C9"/>
<path d="M3.44488 68.7757C8.15417 73.8967 29.6155 81.5738 31.0238 80.1822C32.432 78.7908 26.0586 56.233 21.3493 51.1118C16.64 45.9908 8.81254 45.8014 3.87467 50.6765C-1.07236 55.5608 -1.26439 63.664 3.44488 68.7757Z" fill="#7BE1C9"/>
<path d="M44.5212 80.7692C43.3873 87.9065 50.5289 110.786 52.504 111.117C54.4701 111.458 68.3418 92.1662 69.4849 85.0289C70.6187 77.8914 65.9552 71.1517 59.0696 69.9777C52.1748 68.8039 45.6642 73.6317 44.5212 80.7692Z" fill="#7BE1C9"/>
<path d="M25.5824 124.976C32.5502 124.521 52.4755 112.149 52.3475 110.095C52.2196 108.032 30.9499 98.3855 23.9729 98.84C17.005 99.2943 11.7105 105.523 12.1495 112.736C12.5975 119.959 18.6144 125.43 25.5824 124.976Z" fill="#7BE1C9"/>
<path d="M118.507 191.238C115.361 202.929 123.298 242.45 126.517 243.378C129.745 244.305 156.263 214.724 159.409 203.033C162.554 191.343 155.943 179.226 144.65 175.97C133.357 172.713 121.652 179.548 118.507 191.238Z" fill="#7BE1C9"/>
<path d="M79.1756 261.467C90.8895 262.007 126.296 245.11 126.442 241.645C126.588 238.181 92.773 218.094 81.0594 217.554C69.3455 217.015 59.4241 226.405 58.903 238.531C58.3818 250.657 67.462 260.928 79.1756 261.467Z" fill="#7BE1C9"/>
<path d="M154.294 231.876C147.5 244.959 146.687 294.343 150.289 296.351C153.892 298.358 193.258 270.441 200.052 257.359C206.846 244.277 202.119 227.967 189.481 220.934C176.844 213.891 161.089 218.794 154.294 231.876Z" fill="#7BE1C9"/>
<path d="M97.09 324.54C111.41 323.668 152.458 298.479 152.22 294.248C151.983 290.017 108.374 269.968 94.0539 270.839C79.7342 271.708 68.7978 284.431 69.639 299.266C70.4709 314.099 82.7608 325.411 97.09 324.54Z" fill="#7BE1C9"/>
<path d="M180.255 287.614C173.461 300.695 172.647 350.08 176.25 352.087C179.853 354.092 219.219 326.177 226.013 313.096C232.807 300.014 228.079 283.702 215.442 276.671C202.805 269.638 187.049 274.54 180.255 287.614Z" fill="#7BE1C9"/>
<path d="M123.051 380.284C137.371 379.416 178.419 354.227 178.181 349.995C177.943 345.762 134.335 325.713 120.015 326.584C105.695 327.456 94.7585 340.178 95.5996 355.011C96.4319 369.844 108.722 381.156 123.051 380.284Z" fill="#7BE1C9"/>
<path d="M230.394 355.333C219.293 364.752 200.373 410.085 202.97 413.371C205.567 416.646 252.23 406.356 263.332 396.937C274.433 387.519 276.05 370.573 266.963 359.092C257.855 347.6 241.486 345.915 230.394 355.333Z" fill="#7BE1C9"/>
<path d="M146.771 435.691C161.091 436.684 204.846 417.005 205.12 412.774C205.395 408.542 164.548 383.013 150.237 382.017C135.917 381.024 123.536 392.241 122.585 407.055C121.625 421.88 132.451 434.698 146.771 435.691Z" fill="#7BE1C9"/>
<path d="M67.3812 115.188C66.229 122.439 73.4894 145.678 75.492 146.019C77.4946 146.36 91.5859 126.765 92.7473 119.514C93.8995 112.263 89.1628 105.419 82.1581 104.226C75.1537 103.033 68.5424 107.937 67.3812 115.188Z" fill="#7BE1C9"/>
<path d="M49.1106 160.426C56.1974 159.962 76.4336 147.401 76.3056 145.309C76.1776 143.217 54.5607 133.41 47.4739 133.874C40.3871 134.338 35.0102 140.661 35.4676 147.997C35.9156 155.324 42.0238 160.89 49.1106 160.426Z" fill="#7BE1C9"/>
<path d="M92.5001 146.634C90.0495 156.763 97.7123 190.547 100.51 191.276C103.299 192.005 125.465 165.954 127.916 155.835C130.366 145.707 124.432 135.445 114.647 132.908C104.872 130.362 94.9506 136.515 92.5001 146.634Z" fill="#7BE1C9"/>
<path d="M62.0131 211.553C72.072 210.89 100.83 193.047 100.648 190.074C100.465 187.102 69.7583 173.168 59.6906 173.83C49.632 174.493 41.9873 183.476 42.6275 193.889C43.2767 204.302 51.9546 212.215 62.0131 211.553Z" fill="#7BE1C9"/>
<path d="M391.442 381.383C391.404 381.365 391.368 381.336 391.33 381.309C391.057 381.082 391.011 380.665 391.231 380.372C448.95 305.513 494.743 254.756 520.165 237.452C520.731 237.064 521.133 236.789 521.307 236.638C521.582 236.401 521.985 236.43 522.212 236.714C522.441 236.998 522.413 237.414 522.141 237.651C521.901 237.859 521.518 238.124 520.868 238.569C495.557 255.797 449.862 306.45 392.228 381.204C392.044 381.449 391.707 381.526 391.442 381.383Z" fill="#7BE1C9"/>
<path d="M533.112 237.755C530.16 239.657 518.627 240.604 518.107 239.733C517.587 238.862 523.512 228.582 526.465 226.68C529.418 224.777 533.306 225.714 535.134 228.771C536.973 231.829 536.067 235.852 533.112 237.755Z" fill="#7BE1C9"/>
<path d="M511.378 238.228C511.057 241.901 504.71 252.228 503.696 252.134C502.681 252.039 498.219 240.699 498.54 237.026C498.859 233.353 501.987 230.655 505.534 230.986C509.083 231.318 511.697 234.565 511.378 238.228Z" fill="#7BE1C9"/>
<path d="M515.264 262.527C511.88 261.382 503.588 252.645 503.899 251.651C504.218 250.648 515.896 248.707 519.28 249.852C522.663 250.998 524.499 254.765 523.395 258.268C522.288 261.77 518.647 263.682 515.264 262.527Z" fill="#7BE1C9"/>
<path d="M461.267 282.928C461.377 289.108 452.588 307.549 450.887 307.576C449.187 307.605 439.76 289.515 439.651 283.335C439.541 277.152 444.296 272.052 450.265 271.936C456.237 271.822 461.165 276.745 461.267 282.928Z" fill="#7BE1C9"/>
<path d="M472.002 322.752C466.158 321.473 450.788 308.458 451.142 306.725C451.499 305.003 470.648 299.567 476.492 300.846C482.334 302.124 486.066 308.069 484.822 314.118C483.588 320.166 477.843 324.027 472.002 322.752Z" fill="#7BE1C9"/>
<path d="M438.608 298.223C440.344 305.571 434.655 330.031 432.626 330.541C430.596 331.053 414.64 312.081 412.903 304.736C411.164 297.391 415.509 289.969 422.605 288.171C429.709 286.383 436.869 290.878 438.608 298.223Z" fill="#7BE1C9"/>
<path d="M455.385 351.48C448.427 349.161 431.3 331.317 431.94 329.254C432.58 327.2 456.555 323.082 463.506 325.401C470.464 327.72 474.276 335.445 472.038 342.64C469.796 349.853 462.343 353.809 455.385 351.48Z" fill="#7BE1C9"/>
<path d="M418.929 322.276C420.668 329.624 414.979 354.084 412.95 354.594C410.917 355.106 394.961 336.135 393.225 328.79C391.488 321.444 395.83 314.023 402.926 312.224C410.022 310.425 417.192 314.931 418.929 322.276Z" fill="#7BE1C9"/>
<path d="M435.708 375.533C428.748 373.214 411.621 355.37 412.261 353.308C412.901 351.253 436.879 347.135 443.827 349.454C450.785 351.773 454.6 359.499 452.358 366.693C450.12 373.906 442.667 377.863 435.708 375.533Z" fill="#7BE1C9"/>
<path d="M385.863 349.039C390.17 355.143 393.91 380.002 392.228 381.28C390.545 382.559 368.8 371.312 364.494 365.198C360.187 359.092 361.475 350.516 367.375 346.058C373.273 341.597 381.547 342.933 385.863 349.039Z" fill="#7BE1C9"/>
<path d="M417.174 399.718C409.997 398.318 390.84 382.833 391.233 380.702C391.618 378.581 414.908 371.386 422.085 372.797C429.265 374.199 433.993 381.365 432.628 388.805C431.285 396.237 424.362 401.121 417.174 399.718Z" fill="#7BE1C9"/>
<path d="M495.86 252.181C495.541 255.911 489.085 266.408 488.06 266.315C487.038 266.22 482.502 254.689 482.821 250.969C483.142 247.24 486.324 244.494 489.927 244.826C493.53 245.157 496.189 248.451 495.86 252.181Z" fill="#7BE1C9"/>
<path d="M499.289 276.906C495.852 275.741 487.42 266.872 487.742 265.861C488.06 264.847 499.929 262.868 503.369 264.033C506.806 265.198 508.673 269.03 507.548 272.58C506.421 276.13 502.729 278.071 499.289 276.906Z" fill="#7BE1C9"/>
<path d="M479.59 264.363C479.554 269.683 471.599 285.332 470.136 285.313C468.672 285.302 460.954 269.532 460.992 264.213C461.028 258.893 465.225 254.623 470.365 254.661C475.503 254.708 479.636 259.053 479.59 264.363Z" fill="#7BE1C9"/>
<path d="M486.615 300.402C481.732 298.746 469.753 286.145 470.209 284.698C470.666 283.258 487.527 280.448 492.41 282.104C497.296 283.76 499.947 289.204 498.346 294.248C496.755 299.314 491.497 302.058 486.615 300.402Z" fill="#7BE1C9"/>
<path d="M320.181 415.481C320.181 415.481 263.982 316.173 443.162 245.602C443.162 245.611 439.689 449.985 320.181 415.481Z" fill="#95E7D4"/>
<path d="M443.391 245.29L315.299 401.887C307.06 372.496 303.978 300.194 443.391 245.29Z" fill="#7BE1C9"/>
<path d="M320.704 395.867C320.574 395.867 320.439 395.82 320.329 395.725C320.082 395.508 320.054 395.138 320.263 394.882L442.953 244.902C443.162 244.646 443.529 244.618 443.766 244.835C444.013 245.053 444.041 245.422 443.83 245.678L321.143 395.659C321.033 395.801 320.867 395.867 320.704 395.867Z" fill="#1C2A47"/>
<path d="M379.346 324.181C379.061 324.181 378.816 323.961 378.778 323.66C378.732 323.328 378.961 323.034 379.272 322.987L431.54 315.737C431.851 315.679 432.144 315.916 432.19 316.247C432.236 316.579 432.006 316.872 431.695 316.92L379.428 324.17C379.392 324.181 379.364 324.181 379.346 324.181Z" fill="#1C2A47"/>
<path d="M353.066 356.308C353.03 356.308 352.984 356.308 352.948 356.3C352.637 356.231 352.436 355.92 352.5 355.59L362.824 303.07C362.887 302.75 363.198 302.542 363.509 302.608C363.821 302.674 364.022 302.985 363.958 303.318L353.634 355.835C353.578 356.118 353.331 356.308 353.066 356.308Z" fill="#1C2A47"/>
<path d="M306.035 421.888C306.035 421.888 317.622 339.885 449.013 383.702C449.013 383.694 358.211 496.945 306.035 421.888Z" fill="#7BE1C9"/>
<path d="M449.013 383.694L306.035 421.88C306.035 421.888 345.1 501.29 449.013 383.694Z" fill="#3A6B5F"/>
<path d="M411.733 408.741C411.715 408.741 411.697 408.741 411.669 408.73L378.285 401.689C378.028 401.63 377.865 401.377 377.918 401.121C377.974 400.857 378.222 400.695 378.466 400.743L411.853 407.784C412.108 407.843 412.274 408.096 412.218 408.352C412.182 408.598 411.973 408.759 411.733 408.741Z" fill="#7BE1C9"/>
<path d="M364.348 432.141C364.31 432.141 364.274 432.131 364.246 432.123L321.186 418.265C320.939 418.188 320.804 417.913 320.875 417.657C320.949 417.401 321.214 417.261 321.461 417.335L364.522 431.193C364.769 431.27 364.904 431.544 364.833 431.801C364.769 432.028 364.568 432.16 364.348 432.141Z" fill="#7BE1C9"/>
<path d="M181.581 417.422C181.581 417.422 234.435 324.02 65.916 257.652C65.9252 257.652 69.1897 449.872 181.581 417.422Z" fill="#7BE1C9"/>
<path d="M65.7043 257.349L186.18 404.633C193.925 376.991 196.823 308.986 65.7043 257.349Z" fill="#95E7D4"/>
<path d="M181.097 399.011C180.932 399.011 180.768 398.934 180.658 398.802L65.267 257.738C65.0658 257.482 65.0931 257.104 65.331 256.895C65.5778 256.687 65.9345 256.715 66.1446 256.961L181.536 398.025C181.737 398.282 181.71 398.659 181.472 398.868C181.362 398.963 181.225 399.011 181.097 399.011Z" fill="#1C2A47"/>
<path d="M125.949 331.592C125.921 331.592 125.894 331.592 125.866 331.584L76.7072 324.767C76.3869 324.72 76.1676 324.426 76.2133 324.096C76.2589 323.763 76.5516 323.528 76.8624 323.584L126.022 330.401C126.342 330.446 126.561 330.741 126.516 331.072C126.479 331.375 126.232 331.592 125.949 331.592Z" fill="#1C2A47"/>
<path d="M150.665 361.807C150.4 361.807 150.153 361.609 150.098 361.326L140.387 311.931C140.323 311.609 140.524 311.286 140.835 311.22C141.137 311.154 141.457 311.363 141.521 311.685L151.232 361.078C151.296 361.4 151.095 361.722 150.784 361.788C150.738 361.807 150.701 361.807 150.665 361.807Z" fill="#1C2A47"/>
<path d="M194.888 423.441C194.888 423.441 183.988 346.311 60.4133 387.527C60.4225 387.527 145.82 494.04 194.888 423.441Z" fill="#3A6B5F"/>
<path d="M60.4226 387.527L194.897 423.441C194.888 423.441 158.156 498.129 60.4226 387.527Z" fill="#95E7D4"/>
<path d="M95.4821 411.089C95.5005 411.089 95.5186 411.089 95.5369 411.078L126.938 404.454C127.176 404.406 127.331 404.158 127.286 403.912C127.24 403.667 127.002 403.516 126.765 403.553L95.3633 410.18C95.1254 410.228 94.9701 410.473 95.0158 410.719C95.0614 410.946 95.2626 411.099 95.4821 411.089Z" fill="#3A6B5F"/>
<path d="M140.043 433.097C140.079 433.097 140.107 433.087 140.143 433.079L180.643 420.042C180.872 419.968 181 419.712 180.936 419.474C180.863 419.239 180.616 419.097 180.387 419.173L139.887 432.207C139.659 432.284 139.531 432.537 139.595 432.775C139.659 432.984 139.851 433.105 140.043 433.097Z" fill="#3A6B5F"/>
<path d="M233.09 68.4062C231.947 69.4096 230.859 70.4792 229.835 71.6152C221.404 80.9013 221.953 97.0505 210.257 103.317C201.89 107.804 191.859 104.027 182.468 103.326C175.536 102.806 168.34 104.122 162.497 108.022C156.663 111.922 152.383 118.614 152.182 125.799C151.981 132.861 155.52 139.487 156.096 146.52C156.617 152.929 154.532 159.527 150.435 164.373C146.065 169.551 139.801 172.543 134.634 176.869C129.468 181.195 125.179 188.114 127.191 194.674C129.349 201.708 137.606 204.926 140.542 211.647C143.696 218.879 139.709 227.048 136.829 234.394C133.948 241.74 132.961 251.897 139.499 256.024C142.398 257.86 146.028 257.87 149.412 257.548C151.643 257.33 154.02 257.009 156.032 258.04C157.248 258.665 158.199 259.716 159.049 260.805C164.152 267.298 167.48 276.243 175.098 279.056C179.03 280.503 183.355 279.946 187.488 279.339C196.129 278.071 205.219 276.462 211.93 270.678C223.562 260.644 224.01 241.816 234.087 230.115C242.116 220.791 254.835 217.611 266.84 216.399C278.847 215.187 291.247 215.386 302.496 210.871C309.225 208.173 315.334 203.809 320.161 198.262C323.335 194.608 326.051 190.197 326.344 185.294C326.974 174.701 316.596 166.759 314.539 156.365C312.874 147.94 315.936 139.781 316.056 131.393C316.165 123.177 312.489 115.102 309.353 107.69C302.999 92.7055 292.72 70.7444 278.437 62.4709C264.28 54.2732 245.161 57.7662 233.09 68.4062Z" fill="#1C2A47"/>
<mask id="mask0_127_882" style="mask-type:alpha" maskUnits="userSpaceOnUse" x="131" y="160" width="303" height="234">
<path fill-rule="evenodd" clip-rule="evenodd" d="M422.088 169.221L433.567 187.707L411.379 204.79L411.381 204.794C411.381 204.794 379.762 276.148 350.911 276.716C322.061 277.294 300.426 243.983 300.984 242.26C301.54 240.537 319.847 220.356 319.847 220.356H329.276V220.365C329.276 220.365 342.589 238.824 353.683 238.824C363.331 238.824 393.145 201.873 400.731 192.267C400.823 192.114 404.772 185.407 408.538 179.562C408.775 179.125 414.5 168.558 417.893 165.462C421.361 162.3 426.297 159.148 426.884 160.436C427.162 161.047 425.492 163.735 423.393 167.112C422.972 167.791 422.531 168.497 422.088 169.221ZM167.285 274.283C165.21 268.254 183.242 246.463 183.242 246.463L157.802 220.356C157.802 220.356 133.168 248.006 131.924 266.096C130.741 283.179 178.544 335.21 186.841 344.243H186.841L186.843 344.246C187.331 344.776 187.682 345.157 187.878 345.373C189.098 346.726 189.997 349.2 190.651 351.857C190.042 355.563 188.479 360.679 184.832 367.118C181.339 373.291 185.307 390.841 187.09 390.82C188.874 390.802 188.096 380.068 188.096 380.068C188.096 380.068 189.431 393.461 191.681 393.387C193.93 393.3 192.732 379.5 192.732 379.5C192.732 379.5 194.771 394.058 197.067 393.208C199.362 392.344 198.603 378.705 198.603 378.705C198.603 378.705 201.602 394.267 202.846 392.299C203.635 391.05 203.809 385.496 203.95 380.998C204.032 378.407 204.102 376.167 204.272 375.306C204.503 374.138 206.102 370.264 207.831 366.072L207.831 366.07C208.408 364.67 209 363.236 209.561 361.854C210.135 362.67 210.86 364.955 211.638 367.403C212.806 371.08 214.092 375.129 215.162 375.145C216.597 375.166 216.245 369.926 215.937 365.338C215.833 363.785 215.734 362.309 215.711 361.136C215.619 356.506 208.624 344.343 208.624 344.343L208.624 344.346C207.067 341.433 205.249 338.411 203.651 335.865C200.132 329.452 193.049 317.847 186.054 306.382H186.054C177.127 291.752 168.343 277.358 167.285 274.283Z" fill="white"/>
</mask>
<g mask="url(#mask0_127_882)">
<path fill-rule="evenodd" clip-rule="evenodd" d="M422.088 169.221L433.567 187.707L411.379 204.79L411.381 204.794C411.381 204.794 379.762 276.148 350.911 276.716C322.061 277.294 300.426 243.983 300.984 242.26C301.54 240.537 319.847 220.356 319.847 220.356H329.276V220.365C329.276 220.365 342.589 238.824 353.683 238.824C363.331 238.824 393.145 201.873 400.731 192.267C400.823 192.114 404.772 185.407 408.538 179.562C408.775 179.125 414.5 168.558 417.893 165.462C421.361 162.3 426.297 159.148 426.884 160.436C427.162 161.047 425.492 163.735 423.393 167.112C422.972 167.791 422.531 168.497 422.088 169.221ZM167.285 274.283C165.21 268.254 183.242 246.463 183.242 246.463L157.802 220.356C157.802 220.356 133.168 248.006 131.924 266.096C130.741 283.179 178.544 335.21 186.841 344.243H186.841L186.843 344.246C187.331 344.776 187.682 345.157 187.878 345.373C189.098 346.726 189.997 349.2 190.651 351.857C190.042 355.563 188.479 360.679 184.832 367.118C181.339 373.291 185.307 390.841 187.09 390.82C188.874 390.802 188.096 380.068 188.096 380.068C188.096 380.068 189.431 393.461 191.681 393.387C193.93 393.3 192.732 379.5 192.732 379.5C192.732 379.5 194.771 394.058 197.067 393.208C199.362 392.344 198.603 378.705 198.603 378.705C198.603 378.705 201.602 394.267 202.846 392.299C203.635 391.05 203.809 385.496 203.95 380.998C204.032 378.407 204.102 376.167 204.272 375.306C204.503 374.138 206.102 370.264 207.831 366.072L207.831 366.07C208.408 364.67 209 363.236 209.561 361.854C210.135 362.67 210.86 364.955 211.638 367.403C212.806 371.08 214.092 375.129 215.162 375.145C216.597 375.166 216.245 369.926 215.937 365.338C215.833 363.785 215.734 362.309 215.711 361.136C215.619 356.506 208.624 344.343 208.624 344.343L208.624 344.346C207.067 341.433 205.249 338.411 203.651 335.865C200.132 329.452 193.049 317.847 186.054 306.382H186.054C177.127 291.752 168.343 277.358 167.285 274.283Z" fill="#B5C4E2"/>
<path d="M422.088 169.221L419.936 167.803L419.061 169.229L419.943 170.649L422.088 169.221ZM433.567 187.707L435.089 189.827L437.001 188.355L435.711 186.279L433.567 187.707ZM411.379 204.79L409.859 202.67L407.975 204.119L409.214 206.183L411.379 204.79ZM411.381 204.794L413.699 205.896L414.27 204.606L413.549 203.4L411.381 204.794ZM350.911 276.716L350.863 274.078L350.911 276.716ZM300.984 242.26L298.567 241.421L300.984 242.26ZM319.847 220.356V217.715H318.746L317.991 218.547L319.847 220.356ZM329.276 220.356H331.826V217.715H329.276V220.356ZM329.276 220.365H326.727V221.243L327.234 221.946L329.276 220.365ZM400.731 192.267L402.704 193.94L402.817 193.798L402.908 193.642L400.731 192.267ZM408.538 179.562L410.66 181.028L410.713 180.942L410.764 180.852L408.538 179.562ZM417.893 165.462L419.579 167.444L417.893 165.462ZM426.884 160.436L429.189 159.311L426.884 160.436ZM423.393 167.112L425.538 168.541L423.393 167.112ZM183.242 246.464L185.178 248.182L186.722 246.317L185.037 244.587L183.242 246.464ZM167.285 274.284L169.687 273.396L167.285 274.284ZM157.803 220.356L159.597 218.48L157.72 216.554L155.929 218.565L157.803 220.356ZM131.924 266.096L134.468 266.286L134.468 266.283L131.924 266.096ZM186.841 344.243L188.736 342.476L188.712 342.447L188.688 342.421L186.841 344.243ZM186.841 344.243L184.946 346.01L184.991 346.06L185.038 346.11L186.841 344.243ZM186.841 344.243L185.038 346.11L185.091 346.166L185.147 346.216L186.841 344.243ZM186.841 344.243L188.686 342.421L188.614 342.341L188.535 342.267L186.841 344.243ZM186.843 344.246L188.69 342.423L188.689 342.421L186.843 344.246ZM187.878 345.373L189.74 343.57L187.878 345.373ZM190.651 351.858L193.165 352.301L193.256 351.747L193.122 351.205L190.651 351.858ZM184.832 367.118L182.633 365.782H182.632L184.832 367.118ZM187.09 390.82L187.117 393.461L187.09 390.82ZM188.096 380.068L190.632 379.796L185.554 380.266L188.096 380.068ZM191.681 393.387L191.764 396.026H191.774L191.681 393.387ZM192.732 379.5L195.256 379.12L190.193 379.735L192.732 379.5ZM197.067 393.208L197.927 395.693L197.935 395.691L197.067 393.208ZM198.603 378.705L201.103 378.187L196.057 378.856L198.603 378.705ZM202.846 392.299L204.98 393.744L202.846 392.299ZM203.95 380.998L206.499 381.085L203.95 380.998ZM204.272 375.306L201.775 374.775L204.272 375.306ZM207.831 366.072L210.176 367.108L210.184 367.087L207.831 366.072ZM207.831 366.07L205.486 365.034L205.477 365.056L207.831 366.07ZM209.561 361.854L211.623 360.301L208.963 356.509L207.21 360.83L209.561 361.854ZM211.638 367.404L214.06 366.577L211.638 367.404ZM215.162 375.145L215.198 372.504L215.162 375.145ZM215.937 365.338L218.481 365.156L215.937 365.338ZM215.711 361.136L218.26 361.081L215.711 361.136ZM208.624 344.343L210.814 342.991L206.692 335.823L206.082 344.143L208.624 344.343ZM208.624 344.346L206.393 345.624L210.52 353.347L211.166 344.544L208.624 344.346ZM203.651 335.865L201.435 337.17L201.473 337.239L201.514 337.305L203.651 335.865ZM186.054 306.382L183.883 307.768L183.899 307.792L186.054 306.382ZM186.054 306.382L188.225 304.998L188.209 304.971L186.054 306.382ZM419.943 170.649L431.422 189.136L435.711 186.279L424.232 167.792L419.943 170.649ZM432.047 185.588L409.859 202.67L412.901 206.91L435.089 189.827L432.047 185.588ZM409.214 206.183L409.217 206.187L413.549 203.4L413.546 203.396L409.214 206.183ZM411.381 204.794C409.064 203.692 409.064 203.692 409.064 203.692C409.064 203.692 409.064 203.693 409.064 203.693C409.064 203.695 409.061 203.698 409.061 203.702C409.056 203.709 409.051 203.721 409.043 203.737C409.03 203.769 409.007 203.818 408.979 203.883C408.921 204.014 408.832 204.209 408.714 204.466C408.48 204.979 408.13 205.736 407.676 206.701C406.764 208.632 405.43 211.397 403.735 214.718C400.346 221.367 395.537 230.221 389.843 239.079C384.137 247.954 377.607 256.736 370.794 263.306C363.91 269.941 357.115 273.953 350.863 274.078L350.96 279.357C359.132 279.196 367.107 274.075 374.267 267.174C381.496 260.203 388.28 251.04 394.089 242.006C399.905 232.954 404.805 223.934 408.245 217.185C409.966 213.808 411.328 210.994 412.258 209.02C412.722 208.034 413.082 207.257 413.324 206.724C413.447 206.458 413.538 206.253 413.602 206.113C413.633 206.044 413.656 205.99 413.674 205.954C413.681 205.935 413.686 205.921 413.691 205.912C413.694 205.907 413.696 205.903 413.696 205.9C413.696 205.899 413.699 205.898 413.699 205.897C413.699 205.896 413.699 205.896 411.381 204.794ZM350.863 274.078C337.39 274.347 325.383 266.682 316.64 258.402C312.3 254.292 308.853 250.113 306.54 246.88C305.383 245.26 304.531 243.908 303.998 242.946C303.728 242.457 303.57 242.121 303.493 241.93C303.452 241.829 303.46 241.834 303.48 241.915C303.488 241.957 303.511 242.069 303.521 242.23C303.526 242.371 303.531 242.699 303.401 243.1L298.567 241.421C298.307 242.22 298.473 242.931 298.511 243.11C298.582 243.418 298.684 243.708 298.779 243.945C298.972 244.431 299.248 244.987 299.574 245.573C300.229 246.76 301.201 248.288 302.443 250.025C304.931 253.504 308.593 257.94 313.2 262.301C322.346 270.964 335.582 279.666 350.96 279.357L350.863 274.078ZM303.401 243.1C303.299 243.412 303.182 243.531 303.373 243.251C303.493 243.072 303.682 242.815 303.944 242.475C304.465 241.801 305.199 240.903 306.089 239.846C307.863 237.736 310.186 235.071 312.507 232.445C314.822 229.822 317.124 227.252 318.845 225.336C319.705 224.379 320.421 223.585 320.921 223.031C321.173 222.755 321.37 222.537 321.502 222.39C321.568 222.316 321.619 222.26 321.655 222.222C321.67 222.203 321.686 222.188 321.693 222.179C321.698 222.174 321.701 222.17 321.704 222.168C321.704 222.167 321.706 222.166 321.706 222.165C321.706 222.165 321.706 222.165 321.706 222.165C321.706 222.164 321.706 222.164 319.847 220.356C317.991 218.547 317.989 218.547 317.989 218.548C317.989 218.548 317.989 218.548 317.989 218.548C317.989 218.549 317.989 218.55 317.986 218.551C317.983 218.554 317.981 218.557 317.976 218.562C317.968 218.572 317.953 218.587 317.938 218.606C317.902 218.645 317.851 218.702 317.782 218.776C317.647 218.925 317.451 219.143 317.198 219.422C316.696 219.978 315.977 220.775 315.112 221.736C313.384 223.659 311.074 226.241 308.743 228.879C306.415 231.514 304.059 234.217 302.244 236.376C301.339 237.453 300.551 238.415 299.964 239.174C299.671 239.551 299.411 239.904 299.202 240.211C299.064 240.415 298.738 240.894 298.567 241.421L303.401 243.1ZM319.847 222.997H329.276V217.715H319.847V222.997ZM326.727 220.356V220.365H331.826V220.356H326.727ZM329.276 220.365C327.234 221.946 327.234 221.947 327.234 221.947C327.234 221.948 327.234 221.948 327.234 221.949C327.237 221.95 327.237 221.951 327.239 221.953C327.239 221.956 327.244 221.961 327.247 221.966C327.257 221.977 327.267 221.993 327.282 222.013C327.311 222.052 327.351 222.109 327.405 222.181C327.512 222.326 327.67 222.535 327.871 222.798C328.272 223.324 328.856 224.069 329.587 224.961C331.048 226.741 333.124 229.123 335.569 231.514C338.002 233.897 340.857 236.345 343.884 238.21C346.882 240.057 350.258 241.465 353.683 241.465V236.183C351.559 236.183 349.111 235.284 346.492 233.67C343.904 232.074 341.352 229.907 339.07 227.675C336.798 225.452 334.853 223.219 333.471 221.538C332.782 220.699 332.239 220.003 331.869 219.519C331.683 219.278 331.543 219.09 331.451 218.964C331.403 218.901 331.37 218.854 331.347 218.824C331.337 218.809 331.329 218.798 331.324 218.791C331.321 218.788 331.319 218.786 331.319 218.785C331.319 218.784 331.319 218.784 331.319 218.784V218.784C331.319 218.784 331.319 218.785 329.276 220.365ZM353.683 241.465C355.567 241.465 357.563 240.605 359.42 239.516C361.347 238.384 363.458 236.802 365.651 234.946C370.042 231.23 374.994 226.22 379.825 220.97C389.502 210.459 398.9 198.758 402.704 193.94L398.757 190.595C394.976 195.382 385.675 206.96 376.136 217.325C371.358 222.515 366.574 227.343 362.423 230.855C360.345 232.614 358.484 233.993 356.906 234.92C355.253 235.889 354.208 236.183 353.683 236.183V241.465ZM402.908 193.642C402.998 193.492 406.924 186.824 410.66 181.028L406.417 178.096C402.62 183.989 398.648 190.737 398.556 190.892L402.908 193.642ZM410.764 180.852C410.871 180.651 412.337 177.947 414.186 174.923C416.109 171.779 418.204 168.7 419.579 167.444L416.208 163.48C414.191 165.321 411.726 169.073 409.877 172.096C407.957 175.238 406.44 178.036 406.312 178.272L410.764 180.852ZM419.579 167.444C421.203 165.964 423.161 164.497 424.727 163.578C425.535 163.103 426.088 162.864 426.369 162.787C426.529 162.744 426.392 162.811 426.091 162.764C425.693 162.702 424.959 162.405 424.576 161.561L429.189 159.311C428.661 158.145 427.646 157.665 426.851 157.541C426.155 157.432 425.51 157.559 425.068 157.68C424.15 157.931 423.143 158.435 422.21 158.983C420.295 160.108 418.051 161.799 416.208 163.48L419.579 167.444ZM424.576 161.561C424.275 160.899 424.38 160.35 424.388 160.309C424.405 160.194 424.423 160.172 424.383 160.285C424.298 160.501 424.12 160.872 423.814 161.428C423.212 162.523 422.312 163.971 421.249 165.682L425.538 168.541C426.57 166.877 427.557 165.292 428.243 164.046C428.582 163.431 428.901 162.805 429.12 162.239C429.227 161.961 429.347 161.602 429.411 161.21C429.464 160.892 429.561 160.126 429.189 159.311L424.576 161.561ZM421.249 165.682C420.828 166.36 420.384 167.073 419.936 167.803L424.24 170.638C424.681 169.922 425.114 169.221 425.538 168.541L421.249 165.682ZM183.242 246.464C181.306 244.745 181.306 244.745 181.305 244.745C181.305 244.745 181.305 244.746 181.304 244.746C181.304 244.747 181.303 244.748 181.301 244.75C181.299 244.753 181.295 244.758 181.29 244.763C181.281 244.775 181.267 244.792 181.249 244.814C181.213 244.857 181.161 244.921 181.093 245.004C180.958 245.169 180.761 245.411 180.513 245.72C180.015 246.338 179.309 247.225 178.469 248.308C176.792 250.47 174.569 253.426 172.406 256.584C170.254 259.725 168.108 263.142 166.623 266.21C165.883 267.741 165.264 269.271 164.907 270.694C164.567 272.047 164.367 273.673 164.883 275.171L169.687 273.396C169.694 273.417 169.661 273.333 169.67 273.079C169.68 272.828 169.728 272.48 169.842 272.023C170.075 271.098 170.524 269.936 171.182 268.576C172.495 265.864 174.468 262.701 176.564 259.641C178.65 256.597 180.805 253.729 182.444 251.617C183.262 250.562 183.949 249.7 184.43 249.103C184.67 248.804 184.859 248.572 184.986 248.416C185.05 248.337 185.099 248.278 185.131 248.239C185.147 248.219 185.159 248.205 185.167 248.195C185.171 248.19 185.174 248.187 185.176 248.185C185.177 248.184 185.177 248.183 185.178 248.183C185.178 248.182 185.178 248.182 185.178 248.182C185.178 248.182 185.178 248.182 183.242 246.464ZM156.008 222.232L181.447 248.34L185.037 244.587L159.597 218.48L156.008 222.232ZM134.468 266.283C134.744 262.267 136.349 257.511 138.772 252.501C141.177 247.529 144.293 242.498 147.406 237.976C150.514 233.46 153.588 229.495 155.887 226.657C157.036 225.239 157.988 224.106 158.651 223.33C158.983 222.941 159.242 222.643 159.417 222.443C159.504 222.343 159.57 222.267 159.614 222.218C159.636 222.193 159.652 222.174 159.663 222.163C159.668 222.157 159.672 222.153 159.674 222.15C159.675 222.149 159.676 222.148 159.676 222.147C159.677 222.147 159.677 222.147 159.677 222.147C159.677 222.147 159.676 222.147 157.803 220.356C155.929 218.565 155.928 218.565 155.928 218.566C155.928 218.566 155.927 218.567 155.927 218.567C155.926 218.568 155.924 218.57 155.922 218.572C155.919 218.576 155.913 218.582 155.907 218.589C155.894 218.604 155.875 218.626 155.85 218.654C155.8 218.71 155.728 218.792 155.635 218.899C155.448 219.113 155.177 219.426 154.832 219.829C154.143 220.636 153.161 221.804 151.981 223.261C149.622 226.173 146.46 230.251 143.254 234.909C140.052 239.561 136.777 244.834 134.213 250.135C131.668 255.397 129.727 260.88 129.381 265.908L134.468 266.283ZM188.688 342.421C184.542 337.907 170.575 322.704 157.802 306.517C151.41 298.416 145.366 290.131 141.006 282.852C138.825 279.209 137.102 275.879 135.965 272.992C134.808 270.05 134.362 267.818 134.468 266.286L129.381 265.908C129.192 268.645 129.981 271.777 131.243 274.986C132.527 278.248 134.409 281.856 136.673 285.635C141.202 293.2 147.405 301.688 153.853 309.86C166.759 326.217 180.843 341.544 184.994 346.063L188.688 342.421ZM188.736 342.476L184.946 346.01H184.946L188.736 342.476ZM188.644 342.376L185.038 346.11L188.644 342.376ZM188.535 342.267L185.147 346.216H185.147L188.535 342.267ZM188.689 342.421H188.686L184.996 346.065L184.998 346.068L188.689 342.421ZM189.74 343.57C189.535 343.342 189.173 342.949 188.69 342.423L184.996 346.065C185.489 346.602 185.829 346.971 186.016 347.18L189.74 343.57ZM193.122 351.205C192.465 348.532 191.445 345.458 189.74 343.57L186.016 347.177C186.752 347.994 187.53 349.866 188.181 352.51L193.122 351.205ZM187.031 368.455C190.817 361.77 192.499 356.353 193.165 352.301L188.138 351.414C187.586 354.773 186.14 359.588 182.633 365.782L187.031 368.455ZM187.064 388.182C187.966 388.171 188.472 388.694 188.524 388.747C188.629 388.853 188.629 388.89 188.548 388.744C188.396 388.47 188.17 387.947 187.909 387.146C187.398 385.58 186.874 383.348 186.502 380.884C186.13 378.42 185.925 375.826 186.008 373.528C186.095 371.151 186.48 369.427 187.031 368.455L182.632 365.782C181.437 367.895 181.009 370.679 180.912 373.33C180.813 376.056 181.057 379.006 181.463 381.7C181.87 384.392 182.454 386.93 183.079 388.839C183.386 389.78 183.736 390.672 184.128 391.38C184.32 391.723 184.585 392.141 184.942 392.505C185.246 392.817 185.991 393.475 187.117 393.461L187.064 388.182ZM188.096 380.068C185.554 380.266 185.554 380.266 185.554 380.266C185.554 380.266 185.554 380.269 185.554 380.269C185.554 380.274 185.555 380.279 185.555 380.29C185.557 380.306 185.558 380.335 185.561 380.372C185.566 380.443 185.573 380.554 185.581 380.694C185.598 380.977 185.621 381.381 185.643 381.867C185.687 382.846 185.726 384.135 185.712 385.408C185.698 386.716 185.629 387.878 185.492 388.66C185.418 389.074 185.358 389.185 185.387 389.127C185.406 389.09 185.511 388.887 185.763 388.668C186.051 388.419 186.502 388.187 187.064 388.182L187.117 393.461C188.783 393.446 189.618 392.143 189.904 391.581C190.232 390.931 190.404 390.202 190.508 389.608C190.726 388.372 190.797 386.845 190.812 385.467C190.827 384.056 190.783 382.659 190.737 381.624C190.714 381.103 190.69 380.67 190.671 380.364C190.662 380.211 190.654 380.089 190.648 380.007C190.646 379.965 190.643 379.931 190.642 379.91C190.641 379.896 190.64 379.888 190.64 379.88C190.64 379.878 190.639 379.875 190.639 379.875C190.639 379.873 190.639 379.873 190.639 379.873L190.639 379.87C190.639 379.87 190.639 379.87 188.096 380.068ZM191.598 390.746C192.634 390.712 193.062 391.454 192.944 391.285C192.896 391.216 192.755 390.963 192.565 390.427C192.197 389.389 191.85 387.894 191.55 386.262C191.254 384.658 191.024 383.039 190.868 381.814C190.79 381.201 190.73 380.694 190.691 380.34C190.671 380.163 190.656 380.026 190.647 379.933C190.642 379.886 190.638 379.851 190.636 379.828C190.635 379.817 190.634 379.809 190.633 379.804C190.633 379.801 190.633 379.799 190.633 379.799C190.632 379.796 190.632 379.796 190.632 379.796C190.632 379.796 190.633 379.796 188.096 380.068C185.56 380.34 185.56 380.34 185.56 380.34H185.56C185.56 380.343 185.56 380.343 185.561 380.343C185.561 380.345 185.561 380.348 185.561 380.353C185.562 380.361 185.563 380.372 185.565 380.385C185.568 380.414 185.572 380.454 185.577 380.504C185.588 380.609 185.604 380.757 185.625 380.947C185.667 381.325 185.73 381.861 185.812 382.506C185.976 383.789 186.221 385.514 186.54 387.249C186.855 388.958 187.263 390.796 187.778 392.249C188.03 392.957 188.362 393.739 188.818 394.388C189.203 394.938 190.165 396.081 191.764 396.026L191.598 390.746ZM192.732 379.5C190.193 379.735 190.193 379.735 190.193 379.735V379.738C190.193 379.738 190.193 379.74 190.193 379.743C190.194 379.748 190.195 379.756 190.196 379.77C190.198 379.793 190.201 379.828 190.205 379.878C190.212 379.973 190.224 380.116 190.238 380.298C190.265 380.665 190.302 381.188 190.34 381.822C190.415 383.087 190.492 384.761 190.5 386.425C190.509 388.121 190.446 389.677 190.277 390.759C190.237 391.018 190.194 391.224 190.153 391.38C190.111 391.541 190.082 391.605 190.083 391.602C190.085 391.599 190.103 391.56 190.143 391.502C190.182 391.444 190.254 391.348 190.369 391.243C190.62 391.01 191.041 390.767 191.588 390.746L191.774 396.026C193.515 395.96 194.361 394.563 194.661 393.929C195.009 393.192 195.196 392.344 195.311 391.602C195.55 390.073 195.609 388.163 195.6 386.396C195.591 384.6 195.508 382.817 195.429 381.494C195.39 380.831 195.351 380.277 195.322 379.888C195.307 379.693 195.295 379.54 195.286 379.434C195.282 379.381 195.278 379.339 195.276 379.31C195.275 379.297 195.274 379.284 195.273 379.278C195.273 379.273 195.273 379.27 195.272 379.268L195.272 379.265C195.272 379.265 195.272 379.262 192.732 379.5ZM196.207 390.72C196.698 390.538 197.207 390.58 197.606 390.749C197.942 390.892 198.103 391.079 198.116 391.095C198.125 391.105 197.99 390.928 197.766 390.387C197.343 389.362 196.913 387.807 196.522 386.071C196.139 384.373 195.822 382.633 195.599 381.309C195.488 380.649 195.402 380.097 195.343 379.714C195.314 379.521 195.292 379.371 195.277 379.27C195.27 379.218 195.264 379.181 195.261 379.154C195.259 379.144 195.258 379.133 195.257 379.128C195.256 379.125 195.256 379.122 195.256 379.122C195.256 379.12 195.256 379.12 195.256 379.12C195.256 379.12 195.256 379.12 192.732 379.5C190.209 379.88 190.209 379.88 190.209 379.88C190.209 379.88 190.209 379.883 190.21 379.883C190.21 379.886 190.211 379.888 190.211 379.894C190.212 379.902 190.214 379.912 190.216 379.928C190.22 379.957 190.227 380.002 190.235 380.057C190.251 380.168 190.275 380.329 190.306 380.535C190.368 380.942 190.459 381.523 190.575 382.215C190.807 383.594 191.142 385.44 191.556 387.273C191.961 389.072 192.472 390.997 193.077 392.463C193.367 393.166 193.767 393.987 194.328 394.631C194.866 395.249 196.178 396.343 197.927 395.693L196.207 390.72ZM198.603 378.705C196.057 378.856 196.057 378.856 196.057 378.856C196.057 378.856 196.057 378.856 196.058 378.858C196.058 378.858 196.058 378.861 196.058 378.864C196.058 378.869 196.059 378.877 196.059 378.887C196.06 378.911 196.062 378.948 196.065 378.996C196.069 379.088 196.076 379.231 196.084 379.41C196.1 379.775 196.12 380.295 196.137 380.924C196.172 382.186 196.194 383.866 196.147 385.556C196.099 387.273 195.983 388.897 195.768 390.094C195.659 390.704 195.546 391.071 195.469 391.248C195.344 391.533 195.481 390.992 196.198 390.722L197.935 395.691C199.227 395.205 199.842 394.05 200.115 393.424C200.435 392.69 200.64 391.853 200.782 391.061C201.07 389.457 201.195 387.511 201.244 385.71C201.295 383.882 201.271 382.096 201.234 380.776C201.216 380.113 201.195 379.561 201.178 379.173C201.17 378.98 201.163 378.827 201.157 378.721C201.155 378.668 201.153 378.629 201.151 378.599C201.15 378.586 201.15 378.573 201.149 378.565C201.149 378.562 201.149 378.56 201.149 378.557V378.555H201.148C201.148 378.552 201.148 378.552 198.603 378.705ZM200.712 390.852C200.876 390.593 201.536 389.756 202.752 389.835C203.712 389.896 204.204 390.514 204.222 390.538C204.339 390.672 204.253 390.612 204.026 390.025C203.635 389.011 203.177 387.392 202.728 385.583C202.286 383.803 201.88 381.954 201.582 380.543C201.434 379.838 201.314 379.247 201.231 378.832C201.19 378.626 201.157 378.462 201.136 378.354C201.125 378.298 201.117 378.256 201.111 378.227C201.108 378.214 201.106 378.203 201.105 378.198C201.105 378.193 201.104 378.19 201.104 378.19C201.104 378.187 201.104 378.187 201.104 378.187C201.103 378.187 201.103 378.187 201.103 378.187C201.103 378.187 201.103 378.187 198.603 378.705C196.103 379.223 196.103 379.223 196.103 379.223C196.103 379.223 196.103 379.225 196.103 379.225C196.104 379.228 196.104 379.231 196.105 379.236C196.107 379.244 196.109 379.254 196.112 379.27C196.118 379.302 196.127 379.347 196.138 379.405C196.161 379.521 196.195 379.69 196.238 379.907C196.324 380.335 196.447 380.945 196.6 381.669C196.904 383.113 197.325 385.031 197.789 386.898C198.244 388.731 198.769 390.633 199.291 391.985C199.52 392.579 199.873 393.411 200.391 394.021C200.61 394.28 201.295 395.033 202.435 395.107C203.832 395.197 204.66 394.251 204.98 393.744L200.712 390.852ZM201.402 380.913C201.331 383.177 201.254 385.625 201.099 387.659C201.022 388.678 200.929 389.537 200.82 390.184C200.687 390.968 200.59 391.047 200.712 390.852L204.98 393.744C205.497 392.925 205.717 391.84 205.843 391.092C205.993 390.207 206.101 389.162 206.183 388.073C206.348 385.894 206.429 383.317 206.499 381.085L201.402 380.913ZM201.775 374.775C201.644 375.435 201.579 376.413 201.531 377.369C201.481 378.391 201.442 379.624 201.402 380.913L206.499 381.085C206.54 379.78 206.577 378.599 206.624 377.638C206.675 376.611 206.73 376.038 206.77 375.837L201.775 374.775ZM205.486 365.034C204.624 367.124 203.783 369.163 203.129 370.826C202.519 372.377 201.949 373.898 201.775 374.775L206.77 375.837C206.77 375.837 206.771 375.832 206.775 375.816C206.778 375.802 206.783 375.781 206.79 375.755C206.804 375.702 206.824 375.633 206.851 375.544C206.906 375.367 206.981 375.142 207.077 374.868C207.271 374.318 207.534 373.626 207.851 372.818C208.486 371.204 209.308 369.21 210.175 367.108L205.486 365.034ZM205.477 365.056H205.477L210.184 367.087L205.477 365.056ZM207.21 360.83C206.653 362.203 206.064 363.632 205.486 365.034L210.176 367.108C210.753 365.711 211.348 364.266 211.912 362.877L207.21 360.83ZM214.06 366.577C213.676 365.367 213.284 364.134 212.914 363.098C212.58 362.166 212.149 361.049 211.623 360.301L207.498 363.405C207.49 363.394 207.559 363.497 207.697 363.812C207.822 364.099 207.968 364.474 208.133 364.934C208.463 365.858 208.823 366.992 209.216 368.228L214.06 366.577ZM215.198 372.504C215.857 372.514 216.264 372.829 216.373 372.921C216.49 373.021 216.504 373.069 216.43 372.958C216.286 372.739 216.066 372.308 215.785 371.619C215.234 370.267 214.655 368.449 214.06 366.577L209.216 368.228C209.789 370.034 210.437 372.081 211.088 373.676C211.408 374.461 211.784 375.277 212.218 375.935C212.433 376.262 212.732 376.658 213.13 376.996C213.519 377.329 214.2 377.773 215.126 377.786L215.198 372.504ZM213.393 365.523C213.551 367.86 213.703 370.171 213.654 371.894C213.629 372.784 213.553 373.291 213.492 373.499C213.459 373.61 213.49 373.428 213.702 373.177C213.981 372.847 214.508 372.493 215.198 372.504L215.126 377.786C216.174 377.802 217.005 377.289 217.538 376.658C218.004 376.109 218.24 375.483 218.372 375.034C218.638 374.123 218.724 373.037 218.752 372.047C218.809 370.008 218.632 367.404 218.481 365.156L213.393 365.523ZM213.161 361.189C213.186 362.441 213.291 363.991 213.393 365.523L218.481 365.156C218.375 363.582 218.281 362.177 218.26 361.081L213.161 361.189ZM208.624 344.343C206.433 345.696 206.433 345.696 206.433 345.693C206.433 345.696 206.433 345.696 206.434 345.696C206.434 345.696 206.435 345.698 206.437 345.701C206.439 345.706 206.444 345.714 206.45 345.725C206.462 345.746 206.481 345.778 206.505 345.82C206.554 345.907 206.626 346.034 206.719 346.2C206.906 346.533 207.173 347.014 207.495 347.608C208.14 348.799 208.998 350.429 209.856 352.19C210.717 353.963 211.56 355.833 212.187 357.512C212.846 359.279 213.148 360.531 213.161 361.189L218.26 361.081C218.227 359.425 217.621 357.423 216.943 355.605C216.232 353.704 215.309 351.662 214.41 349.816C213.508 347.959 212.611 346.258 211.942 345.022C211.606 344.404 211.327 343.9 211.13 343.548C211.031 343.374 210.954 343.237 210.9 343.142C210.873 343.094 210.852 343.057 210.838 343.031C210.831 343.02 210.825 343.01 210.821 343.002C210.819 342.999 210.818 342.996 210.816 342.994C210.816 342.994 210.815 342.994 210.815 342.991C210.815 342.991 210.815 342.991 210.815 342.991C210.815 342.991 210.814 342.991 208.624 344.343ZM211.166 344.544L206.082 344.143L206.081 344.145L211.166 344.544ZM201.514 337.305C203.095 339.822 204.877 342.788 206.393 345.624L210.854 343.065C209.257 340.078 207.404 336.998 205.789 334.426L201.514 337.305ZM183.899 307.792C190.913 319.287 197.953 330.826 201.435 337.17L205.868 334.561C202.311 328.079 195.186 316.405 188.21 304.971L183.899 307.792ZM183.883 307.768H183.884L188.225 304.998H188.225L183.883 307.768ZM164.883 275.171C165.239 276.204 166.111 277.889 167.196 279.851C168.327 281.895 169.819 284.468 171.546 287.381C175.001 293.21 179.439 300.484 183.899 307.792L188.209 304.971C183.743 297.653 179.325 290.411 175.892 284.619C174.174 281.718 172.714 279.201 171.621 277.226C170.483 275.168 169.861 273.903 169.687 273.396L164.883 275.171Z" fill="#1C2A47"/>
<path d="M423.253 185.597V145.252H418.628V183.722C418.628 190.897 417.868 198.158 415.389 204.86C414.987 205.93 414.877 207.151 415.134 208.419C415.609 210.729 417.419 212.594 419.65 213.077C423.49 213.91 426.884 210.899 426.884 207.066C426.884 206.431 426.792 205.816 426.619 205.239C424.688 198.84 423.253 192.299 423.253 185.597Z" fill="#1C2A47"/>
<path d="M297.657 324.672C297.657 324.672 314.878 346.263 322.639 371.529C330.403 396.794 325.393 449 325.393 449H267.702C267.702 449 267.144 400.762 264.93 400.183C262.71 399.605 249.952 449 249.952 449H188.933C188.933 449 173.681 370.327 216.805 324.672L257.159 327.258L297.657 324.672Z" fill="#3A6B5F"/>
<path d="M297.659 313.473V324.672C297.659 324.672 277.131 345.347 216.806 324.672L216.669 313.473L269.65 310.029L297.659 313.473Z" fill="#1C2A47"/>
<path d="M277.146 178.412C277.146 178.412 298.526 177.588 309.37 185.341C317.134 190.888 334.261 222.164 334.261 222.164L314.592 239.468C314.592 239.468 319.284 258.344 300.966 267.81L297.647 313.465C297.647 313.465 263.255 334.138 216.657 313.465C216.657 313.465 207.778 227.901 199.457 235.36C191.136 242.828 186.143 249.426 186.143 249.426L155.08 217.554C155.08 217.554 188.95 182.435 200.152 176.926C226.451 164.004 247.711 176.433 247.711 176.433L277.146 178.412Z" fill="#6C8AC5"/>
</g>
<mask id="mask1_127_882" style="mask-type:alpha" maskUnits="userSpaceOnUse" x="226" y="59" width="71" height="123">
<path fill-rule="evenodd" clip-rule="evenodd" d="M226.517 94.173C227.569 75.9035 241.88 61.0606 259.528 59.9909C280.048 58.7414 297.002 75.6668 296.864 96.6058C296.854 97.0609 296.838 97.507 296.821 97.9613L296.818 98.0162L296.854 98.0067C296.849 99.1345 296.864 100.504 296.882 102.065C297.065 117.829 297.471 153.096 277.294 155.447L277.149 178.412C277.149 178.412 268.133 187.196 247.714 176.452L249.04 167.28C250.356 158.192 248.098 149.029 243.087 141.447C241.155 138.527 239.375 135.184 237.639 131.437C230.155 133.281 223.846 123.488 227.698 119.552C228.953 118.272 230.441 117.736 231.924 117.621C231.107 115.493 230.275 113.284 229.416 110.994C227.249 105.892 226.17 100.184 226.517 94.173Z" fill="white"/>
</mask>
<g mask="url(#mask1_127_882)">
<path fill-rule="evenodd" clip-rule="evenodd" d="M226.517 94.173C227.569 75.9035 241.88 61.0606 259.528 59.9909C280.048 58.7414 297.002 75.6668 296.864 96.6058C296.854 97.0609 296.838 97.507 296.821 97.9613L296.818 98.0162L296.854 98.0067C296.849 99.1345 296.864 100.504 296.882 102.065C297.065 117.829 297.471 153.096 277.294 155.447L277.149 178.412C277.149 178.412 268.133 187.196 247.714 176.452L249.04 167.28C250.356 158.192 248.098 149.029 243.087 141.447C241.155 138.527 239.375 135.184 237.639 131.437C230.155 133.281 223.846 123.488 227.698 119.552C228.953 118.272 230.441 117.736 231.924 117.621C231.107 115.493 230.275 113.284 229.416 110.994C227.249 105.892 226.17 100.184 226.517 94.173Z" fill="#B5C4E2"/>
<path d="M259.528 59.9909L259.676 62.6276H259.678L259.528 59.9909ZM226.517 94.173L229.062 94.3309V94.3301L226.517 94.173ZM296.864 96.6058L299.414 96.6586V96.6237L296.864 96.6058ZM296.821 97.9612L294.273 97.8556L296.821 97.9612ZM296.818 98.0162L294.271 97.9105L294.133 101.433L297.435 100.579L296.818 98.0162ZM296.854 98.0067L299.403 98.0228L299.424 94.6199L296.237 95.4442L296.854 98.0067ZM296.882 102.065L294.332 102.097L296.882 102.065ZM277.294 155.447L277.009 152.822L274.76 153.084L274.745 155.43L277.294 155.447ZM277.149 178.412L278.896 180.336L279.691 179.56L279.699 178.429L277.149 178.412ZM247.714 176.452L245.192 176.061L244.92 177.944L246.559 178.807L247.714 176.452ZM249.039 167.28L246.518 166.887V166.889L249.039 167.28ZM243.087 141.447L245.191 139.955L245.19 139.954L243.087 141.447ZM237.639 131.437L239.938 130.294L239.049 128.374L237.049 128.867L237.639 131.437ZM227.698 119.552L225.909 117.669L225.907 117.672L227.698 119.552ZM231.923 117.621L232.114 120.255L235.574 119.986L234.293 116.645L231.923 117.621ZM229.416 110.994L231.792 110.037L231.772 109.984L231.75 109.931L229.416 110.994ZM259.38 57.3542C240.438 58.5023 225.1 74.413 223.972 94.0158L229.062 94.3301C230.037 77.3936 243.321 63.6188 259.676 62.6276L259.38 57.3542ZM299.414 96.6237C299.562 74.1653 281.377 56.0149 259.377 57.3542L259.678 62.6276C278.72 61.4681 294.442 77.1683 294.314 96.5878L299.414 96.6237ZM299.368 98.0671C299.386 97.6168 299.403 97.1443 299.414 96.6586L294.314 96.553C294.306 96.9771 294.291 97.3971 294.273 97.8556L299.368 98.0671ZM299.365 98.1218L299.368 98.0669L294.273 97.8556L294.271 97.9105L299.365 98.1218ZM296.237 95.4442L296.201 95.4537L297.435 100.579L297.473 100.569L296.237 95.4442ZM299.431 102.034C299.414 100.465 299.398 99.1215 299.403 98.0228L294.304 97.9908C294.299 99.1474 294.314 100.544 294.332 102.097L299.431 102.034ZM277.58 158.071C289.454 156.688 294.781 145.594 297.211 134.364C299.684 122.933 299.521 109.867 299.431 102.034L294.332 102.097C294.424 110.028 294.556 122.477 292.236 133.208C289.87 144.14 285.313 151.855 277.009 152.822L277.58 158.071ZM279.699 178.429L279.844 155.464L274.745 155.43L274.599 178.394L279.699 178.429ZM246.559 178.807C257.169 184.39 265.081 185.029 270.52 184.064C273.22 183.585 275.25 182.719 276.639 181.937C277.333 181.547 277.863 181.179 278.238 180.892C278.424 180.749 278.572 180.626 278.682 180.531C278.735 180.484 278.781 180.443 278.817 180.41C278.834 180.394 278.85 180.379 278.863 180.367C278.87 180.36 278.875 180.355 278.88 180.35C278.883 180.347 278.885 180.345 278.888 180.342C278.891 180.341 278.891 180.339 278.893 180.339C278.893 180.337 278.896 180.336 277.149 178.412C275.403 176.488 275.403 176.486 275.405 176.485C275.405 176.484 275.408 176.483 275.408 176.482C275.41 176.48 275.41 176.479 275.413 176.477C275.415 176.474 275.418 176.472 275.42 176.469C275.425 176.465 275.428 176.463 275.428 176.463C275.428 176.463 275.42 176.47 275.405 176.484C275.372 176.512 275.306 176.568 275.206 176.644C275.007 176.796 274.673 177.03 274.204 177.296C273.263 177.825 271.761 178.484 269.658 178.858C265.481 179.599 258.676 179.258 248.868 174.097L246.559 178.807ZM246.518 166.889L245.192 176.061L250.235 176.843L251.561 167.671L246.518 166.889ZM240.983 142.939C245.656 150.011 247.732 158.507 246.518 166.887L251.561 167.672C252.98 157.877 250.539 148.047 245.191 139.955L240.983 142.939ZM235.34 132.579C237.112 136.403 238.955 139.873 240.983 142.94L245.19 139.954C243.355 137.18 241.639 133.965 239.938 130.294L235.34 132.579ZM225.907 117.672C224.252 119.363 223.806 121.599 224.042 123.643C224.274 125.653 225.165 127.629 226.403 129.282C228.851 132.547 233.236 135.236 238.23 134.006L237.049 128.867C234.558 129.481 232.047 128.197 230.431 126.042C229.639 124.985 229.206 123.89 229.105 123.015C229.008 122.173 229.217 121.709 229.489 121.432L225.907 117.672ZM231.733 114.987C229.766 115.14 227.671 115.873 225.909 117.669L229.486 121.434C230.234 120.672 231.115 120.332 232.114 120.255L231.733 114.987ZM227.039 111.951C227.899 114.242 228.734 116.459 229.554 118.596L234.293 116.645C233.48 114.527 232.651 112.326 231.792 110.037L227.039 111.951ZM223.972 94.0151C223.599 100.458 224.757 106.584 227.082 112.058L231.75 109.931C229.741 105.2 228.74 99.9104 229.062 94.3309L223.972 94.0151Z" fill="#1C2A47"/>
<path d="M289.648 114.79C289.824 113.039 288.597 111.477 286.907 111.297C285.214 111.117 283.704 112.386 283.531 114.137C283.358 115.888 284.584 117.45 286.275 117.63C287.957 117.81 289.467 116.541 289.648 114.79Z" fill="#1C2A47"/>
<path d="M260.626 117.961C260.8 116.21 259.576 114.648 257.883 114.468C256.192 114.288 254.683 115.557 254.509 117.308C254.335 119.059 255.56 120.621 257.253 120.801C258.944 120.981 260.453 119.712 260.626 117.961Z" fill="#1C2A47"/>
<path d="M284.967 135.029C284.967 135.029 280.742 132.548 279.197 133.079C277.651 133.609 276.884 135.606 276.884 135.606C276.884 135.606 275.859 133.694 273.949 133.76C272.037 133.826 265.846 137.868 265.846 137.868C265.846 137.868 272.238 145.971 277.962 144.599C283.796 143.198 284.967 135.029 284.967 135.029Z" fill="#6C8AC5"/>
<path d="M250.263 112.121C249.897 112.149 249.522 112.017 249.248 111.723C248.754 111.203 248.773 110.36 249.275 109.849C249.431 109.697 253.088 106.129 258.804 105.939C259.507 105.92 260.101 106.488 260.119 107.217C260.14 107.946 259.535 108.571 258.885 108.58C254.122 108.732 251.086 111.714 251.049 111.742C250.83 111.969 250.546 112.092 250.263 112.121Z" fill="#1C2A47"/>
<path d="M281.848 104.396C281.527 104.216 281.282 103.895 281.198 103.497C281.06 102.778 281.501 102.086 282.195 101.935C282.407 101.888 287.297 100.894 292.254 103.951C292.858 104.33 293.059 105.135 292.703 105.759C292.346 106.384 291.532 106.583 290.956 106.223C286.858 103.696 282.753 104.519 282.707 104.519C282.396 104.595 282.103 104.538 281.848 104.396Z" fill="#1C2A47"/>
<path d="M274.377 130.172C278.006 129.623 279.232 126.812 279.36 125.184C279.378 124.9 279.296 124.616 279.123 124.398C275.884 120.261 276.259 114.241 276.269 114.175C276.315 113.559 275.866 113.029 275.272 112.982C274.688 112.935 274.166 113.399 274.12 114.014C274.102 114.288 273.692 120.602 277.146 125.392C276.927 126.273 276.04 128.222 272.593 128.024C271.991 127.995 271.486 128.459 271.46 129.074C271.422 129.69 271.881 130.21 272.475 130.248C273.169 130.286 273.801 130.258 274.377 130.172Z" fill="#1C2A47"/>
<path d="M265.846 137.878C265.846 137.878 277.542 136.789 284.967 135.029C284.967 135.029 281.795 141.352 277.322 141.607C272.85 141.854 265.846 137.878 265.846 137.878Z" fill="white"/>
<path d="M256.519 96.833C250.282 104.368 243.652 111.751 238.98 120.375C238.459 121.322 234.792 128.459 235.834 129.292C230.146 124.758 226.534 118.028 223.499 111.307C218.232 99.6445 219.877 85.6914 226.48 74.9756C233.008 64.3832 243.881 58.9308 255.815 58.0029C268.617 57.009 282.542 61.5529 290.288 72.6564C297.557 83.0788 297.815 96.1988 298.572 108.505C297.713 94.6841 279.847 84.262 269.127 79.3111C269.438 79.4532 261.055 91.1912 260.614 91.759C259.28 93.4726 257.908 95.1574 256.519 96.833Z" fill="#1C2A47"/>
<path d="M263.192 126.717C263.192 128.677 260.861 130.267 257.99 130.267C255.119 130.267 252.786 128.677 252.786 126.717C252.786 124.758 255.119 123.168 257.99 123.168C260.861 123.168 263.192 124.758 263.192 126.717Z" fill="#91A7D3"/>
<path d="M292.884 123.963C292.884 125.922 290.551 127.513 287.68 127.513C284.809 127.513 282.476 125.922 282.476 123.963C282.476 122.003 284.809 120.413 287.68 120.413C290.551 120.413 292.884 121.994 292.884 123.963Z" fill="#91A7D3"/>
</g>
</g>
<defs>
<clipPath id="clip0_127_882">
<rect width="538" height="449" fill="white"/>
</clipPath>
</defs>
</svg>
