<svg width="155" height="38" viewBox="0 0 155 38" fill="none" xmlns="http://www.w3.org/2000/svg">
<path d="M114.892 1.5269C114.63 1.5269 114.411 1.57105 114.192 1.61521C115.067 2.58654 115.943 4.17602 116.688 6.60437C117.344 6.07454 117.738 5.27981 117.738 4.39676C117.695 2.80731 116.425 1.5269 114.892 1.5269Z" fill="#9A2A76"/>
<path d="M114.192 1.61433C113.01 1.9234 112.09 3.0272 112.09 4.35175C112.09 5.89707 113.36 7.22163 114.936 7.22163C115.593 7.22163 116.206 7.00087 116.688 6.6035C115.9 4.2193 115.024 2.62984 114.192 1.61433Z" fill="#D676AC"/>
<path d="M129.911 7.00073C128.159 6.91243 126.714 8.28114 126.627 10.0472C126.583 11.0186 127.021 11.9457 127.678 12.5639C129.779 10.4004 131.531 9.42909 132.757 9.12002C132.363 7.92792 131.224 7.04489 129.911 7.00073Z" fill="#D32724"/>
<path d="M132.757 9.11951C131.488 9.42857 129.78 10.3999 127.678 12.5634C128.204 13.049 128.904 13.3139 129.649 13.3581C131.4 13.4464 132.889 12.0777 132.933 10.3116C132.976 9.91424 132.889 9.51688 132.757 9.11951Z" fill="#F39325"/>
<path d="M120.891 6.51485C121.635 7.26544 121.592 8.01602 121.241 8.59C121.285 8.63415 121.329 8.63415 121.416 8.63415C121.854 8.81075 122.248 9.03151 122.642 9.25227C124.832 7.83941 124.35 5.49936 124.219 5.0137C123.956 4.0865 123.474 3.29177 122.511 3.15931C121.46 3.02686 120.453 3.77745 120.322 4.88124C120.278 5.54351 120.497 6.1175 120.891 6.51485Z" fill="#5567A9"/>
<path d="M126.014 15.5223C125.533 14.4185 124.832 13.3589 123.913 12.3875C122.993 11.4603 121.942 10.7539 120.804 10.2682C119.753 9.8267 118.658 9.60594 117.564 9.60594C117.476 9.60594 117.432 9.60594 117.345 9.60594C116.163 9.65009 115.024 9.91501 113.798 10.4448C113.754 10.4448 113.754 10.489 113.711 10.489L125.752 22.5867C125.752 22.5424 125.795 22.5424 125.795 22.4983C126.321 21.3062 126.627 20.1583 126.627 18.9661C126.715 17.8182 126.496 16.6261 126.014 15.5223Z" fill="#4F667C"/>
<path d="M125.751 22.2774H108.762C108.325 23.7787 108.106 24.9707 108.106 26.3836C108.106 27.8847 109.594 36.406 117.257 36.406C124.919 36.406 126.408 27.8406 126.408 26.3395C126.408 24.8823 126.189 23.7787 125.751 22.2774ZM112.747 30.578H122.073C122.073 30.578 117.388 38.1279 112.747 30.578Z" fill="#4F667C"/>
<path d="M7.79362 11.372V13.6238H0.0874023V2.05595H2.67073V11.372H7.79362Z" fill="#87A3B2"/>
<path d="M11.9098 4.6167C12.6541 4.6167 13.2233 4.705 13.7488 4.88161C14.2304 5.05822 14.6245 5.27897 14.931 5.58804C15.2375 5.8971 15.4127 6.29448 15.544 6.69183C15.6315 7.13336 15.719 7.61903 15.719 8.193V13.3588C15.3689 13.4471 14.8872 13.5354 14.2304 13.6237C13.6174 13.712 12.8293 13.8003 11.9536 13.8003C11.3844 13.8003 10.9027 13.7561 10.4211 13.6678C9.93945 13.5795 9.58916 13.4029 9.23888 13.1822C8.93238 12.9614 8.66968 12.6523 8.49453 12.255C8.31939 11.9018 8.23181 11.4161 8.23181 10.9304C8.23181 10.4447 8.31939 9.95908 8.53832 9.60586C8.75725 9.25264 9.01995 8.98774 9.37023 8.76698C9.72052 8.54622 10.1146 8.41376 10.5524 8.28131C10.9903 8.193 11.4719 8.14885 11.9098 8.14885C12.2163 8.14885 12.5228 8.193 12.7417 8.193C13.0044 8.23715 13.1796 8.23715 13.3547 8.28131V8.01639C13.3547 7.61903 13.2233 7.26582 12.9606 7.0009C12.6979 6.73599 12.2601 6.60353 11.6471 6.60353C11.253 6.60353 10.8151 6.64768 10.3773 6.69183C9.93944 6.73599 9.63295 6.82429 9.32646 6.95675L9.01995 4.96992C9.15131 4.92577 9.32646 4.88161 9.54538 4.83746C9.76431 4.79331 10.027 4.74916 10.2459 4.705C10.5087 4.66085 10.7714 4.6167 11.0341 4.6167C11.3406 4.66085 11.6471 4.6167 11.9098 4.6167ZM12.1287 11.9018C12.3914 11.9018 12.6104 11.9018 12.8293 11.8576C13.0482 11.8576 13.2233 11.8135 13.3547 11.8135V9.91493C13.2671 9.87078 13.092 9.87078 12.9168 9.87078C12.7417 9.82663 12.5228 9.82663 12.3914 9.82663C12.1287 9.82663 11.9098 9.87078 11.7346 9.87078C11.5595 9.91493 11.3406 9.95908 11.2092 10.0474C11.0341 10.1357 10.9465 10.224 10.8589 10.3564C10.7714 10.4889 10.7276 10.6655 10.7276 10.8421C10.7276 11.2395 10.8589 11.5044 11.1216 11.681C11.3406 11.8135 11.6909 11.9018 12.1287 11.9018Z" fill="#87A3B2"/>
<path d="M22.7248 8.98621C22.7248 8.19147 22.6372 7.6175 22.4182 7.26428C22.1993 6.95521 21.8927 6.7786 21.3674 6.7786C21.1922 6.7786 21.0608 6.7786 20.8857 6.82276C20.7105 6.86691 20.5791 6.86691 20.4041 6.86691V13.6663H17.9083V5.14499C18.1273 5.10084 18.3899 5.05669 18.6526 4.96838C18.9154 4.88008 19.2219 4.88008 19.5721 4.79177C19.8786 4.74762 20.1852 4.70347 20.5355 4.70347C20.8419 4.65932 21.1922 4.65932 21.4988 4.65932C22.1117 4.65932 22.6372 4.74762 23.0311 4.92423C23.4253 5.10084 23.7318 5.27745 23.9944 5.4982C24.3447 5.2333 24.7389 5.01254 25.2204 4.88008C25.7021 4.74762 26.0961 4.65932 26.4902 4.65932C27.1907 4.65932 27.76 4.74762 28.1979 4.96838C28.6357 5.18915 29.0298 5.45405 29.2488 5.80727C29.5114 6.16048 29.6865 6.55786 29.7741 7.08767C29.8617 7.57335 29.9055 8.14731 29.9055 8.7213V13.7105H27.4097V8.98621C27.4097 8.19147 27.3221 7.6175 27.1033 7.26428C26.8843 6.95521 26.5778 6.7786 26.0524 6.7786C25.9211 6.7786 25.7459 6.82276 25.527 6.86691C25.2642 6.91106 25.089 6.99937 24.914 7.13182C25.0015 7.39674 25.0452 7.66165 25.0452 7.9707C25.089 8.23562 25.089 8.54469 25.089 8.8979V13.7105H22.5934V8.98621H22.7248Z" fill="#223B53"/>
<path d="M31.175 9.29613C31.175 8.54554 31.2626 7.83912 31.5254 7.22098C31.7881 6.64702 32.0507 6.16134 32.4448 5.76398C32.839 5.36661 33.2767 5.05755 33.7584 4.88094C34.24 4.70433 34.7655 4.57188 35.2908 4.57188C36.5168 4.57188 37.4801 4.96924 38.2245 5.71983C38.9251 6.47041 39.3192 7.61836 39.3192 9.07537C39.3192 9.20783 39.3192 9.38442 39.2754 9.56103C39.2754 9.73764 39.2316 9.8701 39.2316 10.0467H33.7146C33.7584 10.5765 34.0212 10.9739 34.4152 11.2388C34.8093 11.5479 35.3784 11.6803 36.1229 11.6803C36.6044 11.6803 37.0423 11.6362 37.4363 11.5479C37.8742 11.4596 38.2245 11.3713 38.4871 11.2388L38.7937 13.2698C38.6623 13.3139 38.4871 13.4023 38.2683 13.4464C38.0494 13.4906 37.7866 13.5789 37.5239 13.623C37.2613 13.6672 36.9547 13.7113 36.6482 13.7555C36.3417 13.7996 36.0353 13.7996 35.7287 13.7996C34.9406 13.7996 34.24 13.7113 33.6709 13.4464C33.1016 13.1815 32.62 12.9166 32.2259 12.4751C31.8318 12.0335 31.5692 11.592 31.394 11.018C31.2626 10.5765 31.175 9.95841 31.175 9.29613ZM36.9547 8.36893C36.9547 8.14819 36.911 7.97158 36.8672 7.75081C36.8234 7.5742 36.692 7.35344 36.6044 7.22098C36.473 7.04439 36.2979 6.95609 36.1229 6.82363C35.9477 6.73532 35.6849 6.69117 35.4222 6.69117C35.1595 6.69117 34.8969 6.73532 34.7217 6.82363C34.5465 6.91193 34.3714 7.04439 34.24 7.22098C34.1086 7.39759 33.9774 7.53005 33.9336 7.75081C33.846 7.97158 33.8022 8.14819 33.7584 8.36893H36.9547Z" fill="#223B53"/>
<path d="M40.589 5.14653C40.9829 5.01407 41.5522 4.88161 42.2089 4.79331C42.8658 4.705 43.5663 4.6167 44.3106 4.6167C45.0551 4.6167 45.668 4.705 46.1497 4.92577C46.6312 5.10238 47.0254 5.41143 47.3319 5.76465C47.6383 6.11787 47.8135 6.51524 47.9448 7.04505C48.0762 7.53073 48.12 8.1047 48.12 8.67868V13.6678H45.6242V8.98774C45.6242 8.193 45.5366 7.61903 45.3177 7.26582C45.0989 6.9126 44.7047 6.78014 44.1354 6.78014C43.9604 6.78014 43.7853 6.78014 43.5663 6.82429C43.3911 6.86844 43.1722 6.86844 43.0408 6.86844V13.6678H40.5452L40.589 5.14653Z" fill="#223B53"/>
<path d="M49.6088 2.67375L52.1046 2.2764V4.83721H55.0819V6.91234H52.1046V10.003C52.1046 10.5328 52.1921 10.9302 52.3673 11.2834C52.5425 11.5924 52.8927 11.769 53.4619 11.769C53.7245 11.769 53.9873 11.7249 54.2938 11.6807C54.6004 11.6366 54.8192 11.5924 55.0381 11.46L55.3885 13.4027C55.0819 13.491 54.7755 13.6234 54.3814 13.7117C54.0311 13.8 53.5495 13.8442 53.0678 13.8442C52.3673 13.8442 51.8418 13.7559 51.3603 13.5793C50.9223 13.4027 50.572 13.1378 50.3094 12.8287C50.0467 12.5196 49.8715 12.0781 49.7839 11.6366C49.6963 11.1509 49.6088 10.6653 49.6088 10.0913V2.67375Z" fill="#223B53"/>
<path d="M55.6075 9.29613C55.6075 8.54554 55.6951 7.83912 55.9579 7.22098C56.2206 6.64702 56.4834 6.16134 56.8773 5.76398C57.2715 5.36661 57.7094 5.05755 58.1909 4.88094C58.7164 4.70433 59.198 4.57188 59.7235 4.57188C60.9495 4.57188 61.9127 4.96924 62.657 5.71983C63.3575 6.47041 63.7517 7.61836 63.7517 9.07537C63.7517 9.20783 63.7517 9.38442 63.7079 9.56103C63.7079 9.73764 63.6641 9.8701 63.6641 10.0467H58.0596C58.1033 10.5765 58.3661 10.9739 58.7602 11.2388C59.1542 11.5479 59.7235 11.6803 60.4678 11.6803C60.9495 11.6803 61.3872 11.6362 61.7814 11.5479C62.1755 11.4596 62.5695 11.3713 62.8322 11.2388L63.1387 13.2698C63.0074 13.3139 62.8322 13.4023 62.6132 13.4464C62.3943 13.4906 62.1317 13.5789 61.8689 13.623C61.6062 13.6672 61.2997 13.7113 60.9933 13.7555C60.6867 13.7996 60.3802 13.7996 60.0737 13.7996C59.2856 13.7996 58.585 13.7113 58.0158 13.4464C57.4466 13.1815 56.9649 12.9166 56.571 12.4751C56.1768 12.0777 55.9141 11.592 55.7389 11.018C55.6951 10.5765 55.6075 9.95841 55.6075 9.29613ZM61.3872 8.36893C61.3872 8.14819 61.3434 7.97158 61.2997 7.75081C61.2559 7.5742 61.1245 7.35344 61.0371 7.22098C60.9057 7.04439 60.7305 6.95609 60.5554 6.82363C60.3802 6.73532 60.1174 6.69117 59.8111 6.69117C59.5483 6.69117 59.2856 6.73532 59.1104 6.82363C58.9352 6.91193 58.7602 7.04439 58.6288 7.22098C58.4975 7.39759 58.3661 7.53005 58.3223 7.75081C58.2347 7.97158 58.1909 8.14819 58.1471 8.36893H61.3872Z" fill="#223B53"/>
<path d="M65.1525 9.29613C65.1525 8.54554 65.24 7.83912 65.5028 7.22098C65.7655 6.64702 66.0281 6.16134 66.4223 5.76398C66.8164 5.36661 67.2541 5.05755 67.7359 4.88094C68.2174 4.70433 68.7429 4.57188 69.2682 4.57188C70.4942 4.57188 71.4575 4.96924 72.202 5.71983C72.9025 6.47041 73.2966 7.61836 73.2966 9.07537C73.2966 9.20783 73.2966 9.38442 73.2528 9.56103C73.2528 9.73764 73.209 9.8701 73.209 10.0467H67.6045C67.6483 10.5765 67.911 10.9739 68.305 11.2388C68.6991 11.5479 69.2682 11.6803 70.0127 11.6803C70.4943 11.6803 70.9322 11.6362 71.3263 11.5479C71.764 11.4596 72.1144 11.3713 72.3771 11.2388L72.6835 13.2698C72.5523 13.3139 72.3771 13.4023 72.1582 13.4464C71.9392 13.4906 71.6765 13.5789 71.4139 13.623C71.1511 13.6672 70.8446 13.7113 70.538 13.7555C70.2317 13.7996 69.9251 13.7996 69.6186 13.7996C68.8305 13.7996 68.13 13.7113 67.5607 13.4464C66.9915 13.1815 66.5098 12.9166 66.1157 12.4751C65.7218 12.0777 65.459 11.592 65.2838 11.018C65.24 10.5765 65.1525 9.95841 65.1525 9.29613ZM70.976 8.36893C70.976 8.14819 70.9322 7.97158 70.8884 7.75081C70.8446 7.5742 70.7132 7.35344 70.6256 7.22098C70.4942 7.04439 70.3192 6.95609 70.1441 6.82363C69.9689 6.73532 69.7062 6.69117 69.4434 6.69117C69.1808 6.69117 68.9181 6.73532 68.7429 6.82363C68.5677 6.91193 68.3926 7.04439 68.2612 7.22098C68.1298 7.39759 67.9986 7.53005 67.9548 7.75081C67.8672 7.97158 67.8234 8.14819 67.7796 8.36893H70.976Z" fill="#87A3B2"/>
<path d="M77.0622 11.8561C77.5438 11.8561 77.8066 11.8119 78.0255 11.7236C78.2007 11.6353 78.2883 11.4587 78.2883 11.1938C78.2883 11.0172 78.2007 10.7964 77.9379 10.664C77.6752 10.4874 77.325 10.3549 76.8433 10.1342C76.4492 10.0017 76.099 9.82509 75.7925 9.69263C75.4859 9.51602 75.2233 9.33941 74.9606 9.1628C74.7416 8.94206 74.5664 8.67714 74.4351 8.41223C74.3475 8.10316 74.2599 7.74996 74.2599 7.30843C74.2599 6.46955 74.5664 5.80727 75.1795 5.36576C75.7925 4.88008 76.6243 4.65932 77.6752 4.65932C78.2007 4.65932 78.726 4.70347 79.2077 4.79177C79.6893 4.88008 80.0834 4.96838 80.3899 5.10084L79.952 7.04352C79.6456 6.95521 79.3391 6.86691 79.0326 6.7786C78.726 6.69031 78.332 6.6903 77.8941 6.6903C77.1498 6.6903 76.7119 6.91106 76.7119 7.35259C76.7119 7.44089 76.7557 7.5292 76.7557 7.6175C76.7995 7.7058 76.8433 7.79409 76.9309 7.83825C77.0185 7.92655 77.1936 7.9707 77.325 8.10316C77.5 8.19147 77.719 8.27977 77.9817 8.36808C78.5072 8.54469 78.945 8.76545 79.2953 8.98621C79.6456 9.16282 79.9082 9.38357 80.1272 9.60433C80.3024 9.82509 80.4775 10.09 80.5651 10.3549C80.6527 10.6198 80.6965 10.973 80.6965 11.3263C80.6965 12.2093 80.3899 12.8716 79.7331 13.3131C79.0763 13.7546 78.2007 13.9754 76.9747 13.9754C76.2304 13.9754 75.5735 13.9312 75.0482 13.7988C74.5227 13.6663 74.1723 13.5338 73.9973 13.4897L74.3913 11.4587C74.7854 11.6353 75.2233 11.7678 75.6611 11.8561C76.1866 11.8119 76.6243 11.8561 77.0622 11.8561Z" fill="#87A3B2"/>
<path d="M8.88841 25.7648C8.88841 24.2635 8.71327 23.2039 8.31921 22.5858C7.92514 21.9677 7.26836 21.6586 6.34886 21.6586C6.04237 21.6586 5.77966 21.7027 5.42938 21.7027C5.12289 21.7469 4.81638 21.7469 4.50988 21.791V34.4184H0V18.6563C0.394067 18.5679 0.83192 18.4355 1.35734 18.3472C1.88277 18.2588 2.45198 18.1264 3.02119 18.0381C3.63418 17.9498 4.20339 17.8616 4.81638 17.8173C5.42938 17.7732 6.04237 17.729 6.65537 17.729C7.83757 17.729 8.75706 17.8616 9.50141 18.1705C10.2458 18.4796 10.815 18.8328 11.2966 19.2302C11.9534 18.7446 12.6977 18.3913 13.5734 18.1264C14.4054 17.8616 15.1935 17.729 15.9379 17.729C17.2514 17.729 18.3022 17.9057 19.1342 18.2588C19.9661 18.612 20.6228 19.1419 21.1045 19.8042C21.5861 20.4665 21.9364 21.2612 22.1116 22.1442C22.2867 23.0714 22.3743 24.087 22.3743 25.1907V34.4184H17.8206V25.7648C17.8206 24.2635 17.6455 23.2039 17.2514 22.5858C16.8574 21.9677 16.2005 21.6586 15.281 21.6586C15.0184 21.6586 14.6681 21.7027 14.2302 21.8351C13.7924 21.9677 13.3983 22.1001 13.1356 22.3209C13.2669 22.8065 13.3983 23.2921 13.3983 23.822C13.4421 24.3519 13.4421 24.9258 13.4421 25.544V34.4627H8.88841V25.7648Z" fill="#4F667C"/>
<path d="M31.1754 17.6857C32.5327 17.6857 33.6712 17.8623 34.5906 18.1714C35.5101 18.4805 36.2107 18.922 36.7799 19.496C37.3054 20.0699 37.6993 20.7763 37.9183 21.6153C38.1373 22.4541 38.2248 23.3814 38.2248 24.3969V34.0219C37.568 34.1543 36.6485 34.331 35.4663 34.5518C34.2841 34.7283 32.8831 34.8609 31.2191 34.8609C30.1683 34.8609 29.2488 34.7725 28.3732 34.5959C27.5411 34.4193 26.7968 34.1102 26.1839 33.6687C25.5708 33.2713 25.0893 32.6973 24.7827 31.9909C24.4762 31.2844 24.301 30.4456 24.301 29.4742C24.301 28.503 24.4762 27.7081 24.8703 27.0458C25.2644 26.3836 25.7898 25.8539 26.4027 25.4564C27.0158 25.0591 27.7601 24.75 28.592 24.6176C29.424 24.4409 30.2997 24.3526 31.1316 24.3526C31.7446 24.3526 32.2262 24.3969 32.7079 24.4409C33.1894 24.485 33.5398 24.5293 33.8025 24.6176V24.1761C33.8025 23.3814 33.5398 22.7632 33.1019 22.2776C32.6203 21.7918 31.7884 21.571 30.6062 21.571C29.818 21.571 29.0737 21.6153 28.2856 21.7477C27.5411 21.836 26.8844 22.0126 26.3153 22.2333L25.7898 18.4805C26.0525 18.3922 26.4027 18.3038 26.7968 18.2155C27.1909 18.1272 27.6287 18.039 28.1104 17.9507C28.592 17.8623 29.0737 17.8182 29.5992 17.774C30.0807 17.6857 30.6062 17.6857 31.1754 17.6857ZM31.5257 31.2403C32.0072 31.2403 32.4014 31.2403 32.8393 31.1962C33.2332 31.152 33.5836 31.152 33.8025 31.1079V27.5757C33.6274 27.5316 33.3208 27.4874 32.9706 27.4433C32.5765 27.3992 32.27 27.3992 31.9634 27.3992C31.5257 27.3992 31.1316 27.4433 30.7376 27.4874C30.3435 27.5316 30.0369 27.664 29.7304 27.7965C29.424 27.9289 29.205 28.1056 29.0299 28.4147C28.8547 28.6795 28.7671 28.9444 28.7671 29.3418C28.7671 30.0482 29.0299 30.578 29.5116 30.843C30.0369 31.1079 30.6938 31.2403 31.5257 31.2403Z" fill="#4F667C"/>
<path d="M50.9224 22.1885C50.5283 22.1001 50.0028 21.9677 49.4775 21.8794C48.952 21.791 48.3391 21.7027 47.6822 21.7027C47.3758 21.7027 47.0693 21.7469 46.6314 21.791C46.2374 21.8351 45.9309 21.8794 45.7119 21.9677V34.4627H41.1582V18.9654C41.9902 18.6563 42.9535 18.3913 44.0919 18.1264C45.1865 17.8616 46.4563 17.729 47.8574 17.729C48.1201 17.729 48.3829 17.7732 48.7768 17.7732C49.1272 17.8173 49.4775 17.8616 49.8278 17.9057C50.178 17.9497 50.5283 17.994 50.8787 18.0823C51.2288 18.1705 51.5354 18.2588 51.7981 18.3472L50.9224 22.1885Z" fill="#4F667C"/>
<path d="M58.4533 17.6857C59.8107 17.6857 60.9491 17.8623 61.8686 18.1714C62.788 18.4805 63.4887 18.922 64.0578 19.496C64.5833 20.0699 64.9773 20.7763 65.1963 21.6153C65.4152 22.4541 65.5028 23.3814 65.5028 24.3969V34.0219C64.8459 34.1543 63.9265 34.331 62.7442 34.5518C61.562 34.7283 60.161 34.8609 58.4971 34.8609C57.4463 34.8609 56.5268 34.7725 55.6511 34.5959C54.8192 34.4193 54.0748 34.1102 53.4618 33.6687C52.8488 33.2713 52.3672 32.6973 52.0607 31.9909C51.7541 31.2844 51.579 30.4456 51.579 29.4742C51.579 28.503 51.7541 27.7081 52.1483 27.0458C52.5424 26.3836 53.0677 25.8539 53.6808 25.4564C54.2937 25.0591 55.038 24.75 55.8701 24.6176C56.702 24.4409 57.5776 24.3526 58.4095 24.3526C59.0226 24.3526 59.5041 24.3969 59.9858 24.4409C60.4674 24.485 60.8177 24.5293 61.0805 24.6176V24.1761C61.0805 23.3814 60.8177 22.7632 60.3798 22.2776C59.8983 21.7918 59.0664 21.571 57.8842 21.571C57.0959 21.571 56.3516 21.6153 55.5635 21.7477C54.7754 21.8801 54.1624 22.0126 53.5932 22.2333L53.0677 18.4805C53.3305 18.3922 53.6808 18.3038 54.0748 18.2155C54.4689 18.1272 54.9067 18.039 55.3884 17.9507C55.8701 17.8623 56.3516 17.8182 56.8771 17.774C57.3587 17.6857 57.928 17.6857 58.4533 17.6857ZM58.8036 31.2403C59.2852 31.2403 59.6793 31.2403 60.1172 31.1962C60.5112 31.152 60.8615 31.152 61.0805 31.1079V27.5757C60.9053 27.5316 60.5988 27.4874 60.2486 27.4433C59.8545 27.3992 59.5479 27.3992 59.2415 27.3992C58.8036 27.3992 58.4095 27.4433 58.0155 27.4874C57.6214 27.5316 57.3149 27.664 57.0085 27.7965C56.702 27.9289 56.483 28.1056 56.3078 28.4147C56.1327 28.6795 56.0451 28.9444 56.0451 29.3418C56.0451 30.0482 56.3078 30.578 56.7895 30.843C57.3149 31.1079 57.9718 31.2403 58.8036 31.2403Z" fill="#4F667C"/>
<path d="M72.4646 34.4636C71.4138 32.3884 70.3629 29.9602 69.2683 27.1786C68.1737 24.397 67.1666 21.3947 66.2034 18.0832H71.0635C71.2824 18.878 71.5014 19.761 71.8079 20.7324C72.0705 21.6595 72.377 22.6309 72.6836 23.6023C72.99 24.5735 73.2965 25.5008 73.603 26.428C73.9096 27.3551 74.216 28.1498 74.4787 28.9447C74.7415 28.1941 75.0042 27.3993 75.3544 26.428C75.6609 25.5008 75.9675 24.5735 76.274 23.6023C76.5804 22.6309 76.8869 21.6595 77.1497 20.7324C77.4123 19.8051 77.675 18.9222 77.894 18.0832H82.6666C81.7034 21.3504 80.6963 24.397 79.6017 27.1786C78.5071 29.9602 77.4561 32.3884 76.4052 34.4636H72.4646Z" fill="#4F667C"/>
<path d="M88.7967 13.4029C88.7967 14.2418 88.534 14.9041 87.9648 15.3897C87.4394 15.8755 86.7826 16.1403 86.0383 16.1403C85.2939 16.1403 84.6372 15.8755 84.1117 15.3897C83.5863 14.9041 83.2798 14.2418 83.2798 13.4029C83.2798 12.5641 83.5425 11.9018 84.1117 11.4161C84.681 10.9304 85.2939 10.6655 86.0383 10.6655C86.7826 10.6655 87.4394 10.9304 87.9648 11.4161C88.4902 11.8576 88.7967 12.5641 88.7967 13.4029ZM88.359 34.4634H83.7615V18.1272H88.359V34.4634Z" fill="#4F667C"/>
<path d="M97.9042 34.7728C96.5906 34.7287 95.496 34.5963 94.6641 34.3313C93.8321 34.0664 93.1754 33.6692 92.6937 33.2276C92.2121 32.7419 91.8618 32.1679 91.7304 31.4615C91.5552 30.755 91.4677 29.9603 91.4677 29.1215V11.1075L96.0651 10.3569V28.1501C96.0651 28.5475 96.1089 28.9448 96.1527 29.2539C96.1965 29.563 96.3279 29.872 96.503 30.0927C96.6782 30.3135 96.9408 30.4902 97.2473 30.6226C97.5539 30.755 97.9918 30.8876 98.5609 30.8876L97.9042 34.7728Z" fill="#4F667C"/>
<path d="M106.398 34.7728C105.085 34.7287 103.99 34.5963 103.158 34.3313C102.326 34.0664 101.669 33.6692 101.188 33.2276C100.706 32.7419 100.356 32.1679 100.225 31.4615C100.049 30.755 99.9619 29.9603 99.9619 29.1215V11.1075L104.559 10.3569V28.1501C104.559 28.5475 104.603 28.9448 104.647 29.2539C104.691 29.563 104.822 29.872 104.997 30.0927C105.172 30.3135 105.435 30.4902 105.741 30.6226C106.048 30.755 106.486 30.8876 107.055 30.8876L106.398 34.7728Z" fill="#4F667C"/>
<path d="M133.37 31.1073C134.202 31.1073 134.815 31.019 135.165 30.8424C135.515 30.6658 135.69 30.3567 135.69 29.8711C135.69 29.4736 135.472 29.1645 134.99 28.8997C134.508 28.6348 133.851 28.2816 132.932 27.9283C132.231 27.6634 131.575 27.3986 130.962 27.0895C130.349 26.7804 129.867 26.4713 129.473 26.0298C129.079 25.6325 128.729 25.1467 128.51 24.5728C128.291 24.0429 128.203 23.3365 128.203 22.5418C128.203 20.9965 128.772 19.8043 129.911 18.9213C131.005 18.0384 132.625 17.5969 134.552 17.5969C135.515 17.5969 136.479 17.685 137.398 17.8617C138.317 18.0384 139.018 18.2149 139.543 18.4357L138.755 22.012C138.23 21.8354 137.661 21.6588 137.004 21.5263C136.391 21.3939 135.69 21.3056 134.902 21.3056C133.457 21.3056 132.757 21.7029 132.757 22.4977C132.757 22.6742 132.801 22.8509 132.844 22.9833C132.888 23.1158 133.019 23.2482 133.238 23.3808C133.457 23.5132 133.676 23.6456 133.983 23.8221C134.289 23.9988 134.727 24.1312 135.209 24.352C136.216 24.7494 137.048 25.1026 137.705 25.4558C138.361 25.809 138.887 26.2064 139.237 26.648C139.631 27.0452 139.894 27.5751 140.025 28.0609C140.2 28.5906 140.244 29.1645 140.244 29.8711C140.244 31.5046 139.631 32.6967 138.449 33.5357C137.267 34.3745 135.515 34.7719 133.37 34.7719C131.925 34.7719 130.743 34.6395 129.779 34.3745C128.816 34.1096 128.159 33.8889 127.809 33.7564L128.553 30.0035C129.341 30.3126 130.13 30.5333 130.962 30.7541C131.793 31.019 132.582 31.1073 133.37 31.1073Z" fill="#4F667C"/>
<path d="M147.951 17.6857C149.308 17.6857 150.446 17.8623 151.366 18.1714C152.285 18.4805 152.986 18.922 153.555 19.496C154.08 20.0699 154.475 20.7763 154.693 21.6153C154.913 22.4541 155 23.3814 155 24.3969V34.0219C154.344 34.1543 153.424 34.331 152.242 34.5518C151.059 34.7283 149.658 34.8609 147.994 34.8609C146.944 34.8609 146.024 34.7725 145.148 34.5959C144.317 34.4193 143.572 34.1102 142.959 33.6687C142.346 33.2713 141.865 32.6973 141.558 31.9909C141.251 31.2844 141.076 30.4456 141.076 29.4742C141.076 28.503 141.251 27.7081 141.646 27.0458C142.04 26.3836 142.565 25.8539 143.178 25.4564C143.791 25.0591 144.535 24.75 145.367 24.6176C146.199 24.4409 147.075 24.3526 147.907 24.3526C148.52 24.3526 149.001 24.3969 149.483 24.4409C149.965 24.485 150.315 24.5293 150.577 24.6176V24.1761C150.577 23.3814 150.315 22.7632 149.877 22.2776C149.396 21.7918 148.564 21.571 147.381 21.571C146.593 21.571 145.849 21.6153 145.061 21.7477C144.317 21.836 143.66 22.0126 143.091 22.2333L142.565 18.4805C142.828 18.3922 143.178 18.3038 143.572 18.2155C143.966 18.1272 144.404 18.039 144.886 17.9507C145.367 17.8623 145.849 17.8182 146.374 17.774C146.9 17.6857 147.425 17.6857 147.951 17.6857ZM148.301 31.2403C148.783 31.2403 149.177 31.2403 149.615 31.1962C150.008 31.152 150.359 31.152 150.577 31.1079V27.5757C150.403 27.5316 150.096 27.4874 149.746 27.4433C149.352 27.3992 149.045 27.3992 148.739 27.3992C148.301 27.3992 147.907 27.4433 147.513 27.4874C147.119 27.5316 146.812 27.664 146.506 27.7965C146.199 27.9289 145.98 28.1056 145.805 28.4147C145.63 28.6795 145.542 28.9444 145.542 29.3418C145.542 30.0482 145.805 30.578 146.287 30.843C146.812 31.1079 147.469 31.2403 148.301 31.2403Z" fill="#4F667C"/>
<path d="M127.065 4.57254C126.977 3.6895 126.802 3.51289 126.452 3.24798C125.97 2.93893 125.313 3.07137 124.963 3.55705C124.657 4.04272 124.788 4.70499 125.27 5.05821C126.277 5.67633 125.182 7.0892 125.182 7.0892C126.539 6.47108 127.196 5.45557 127.065 4.57254Z" fill="#A863A5"/>
<path d="M133.633 9.03206C133.37 9.03206 133.107 9.07621 132.757 9.12036C132.888 9.51774 132.932 9.87095 132.932 10.3125C132.845 12.0785 131.4 13.4473 129.648 13.359C128.904 13.3148 128.203 13.0499 127.678 12.5642C127.634 12.6084 127.59 12.6525 127.59 12.6525C127.328 12.9174 127.109 13.1382 126.89 13.4031C127.153 13.8888 127.415 14.3303 127.634 14.816C127.722 15.125 127.853 15.4341 127.941 15.7432C129.123 14.9484 130.48 14.242 132.013 13.8446C135.91 12.785 136.129 9.12036 133.633 9.03206Z" fill="#EE7326"/>
<path d="M112.221 9.34064L112.922 8.94327C112.966 8.89912 113.01 8.89912 113.097 8.85497C114.367 8.281 115.724 7.92778 117.038 7.88363C117.038 7.83948 117.038 7.83948 116.994 7.83948C116.907 7.39795 116.731 6.95644 116.644 6.55907C116.162 6.95644 115.549 7.17719 114.892 7.17719C113.36 7.17719 112.046 5.8968 112.046 4.30733C112.046 2.98277 112.966 1.87897 114.148 1.56991C113.316 0.64272 112.528 0.289505 111.784 0.289505C108.981 0.289505 107.23 5.54358 111.039 8.281C111.433 8.6342 111.871 8.98742 112.221 9.34064Z" fill="#D45E9F"/>
<path d="M112.178 13.9765C110.558 13.9765 109.2 15.3011 109.2 16.9788C109.2 17.7294 109.463 18.3917 109.945 18.9657C110.908 17.6852 112.44 16.8905 114.104 16.8905C114.455 16.8905 114.805 16.9347 115.111 16.9788C115.111 15.3011 113.798 13.9765 112.178 13.9765Z" fill="#ADCE6D"/>
<path d="M122.292 21.4833L116.6 15.7877C115.287 16.8915 114.411 18.5693 114.411 20.4678C114.411 20.821 114.455 21.1742 114.498 21.4833H122.292Z" fill="#F39325"/>
<path d="M119.315 21.4824C119.096 19.1423 117.038 17.7294 117.038 17.7294C116.469 17.3322 115.812 17.0672 115.111 16.9347V16.979C115.111 18.6125 113.798 19.9813 112.134 19.9813C111.215 19.9813 110.426 19.5839 109.901 18.9657C109.376 19.7163 108.982 20.5993 108.894 21.5265L119.315 21.4824Z" fill="#38B6AB"/>
<path d="M114.104 16.8458C112.397 16.8458 110.908 17.6848 109.945 18.921C110.47 19.5392 111.258 19.9365 112.178 19.9365C113.798 19.9365 115.155 18.6119 115.155 16.9341V16.89C114.805 16.89 114.455 16.8458 114.104 16.8458Z" fill="#CFE09B"/>
<path d="M115.462 17.0232C115.768 16.5376 116.162 16.1402 116.556 15.8312L114.98 14.2858C114.674 14.3741 114.323 14.5507 114.061 14.7715C114.674 15.3014 115.112 16.0961 115.112 16.9791C115.243 16.9791 115.374 16.9791 115.462 17.0232Z" fill="#D32724"/>
</svg>
